<?xml version="1.0" standalone="no"?>
<!DOCTYPE svg PUBLIC "-//W3C//DTD SVG 20010904//EN"
 "http://www.w3.org/TR/2001/REC-SVG-20010904/DTD/svg10.dtd">
<svg version="1.0" xmlns="http://www.w3.org/2000/svg"
 width="1280.000000pt" height="946.000000pt" viewBox="0 0 1280.000000 946.000000"
 preserveAspectRatio="xMidYMid meet">
<metadata>
Created by potrace 1.15, written by Peter Selinger 2001-2017
</metadata>
<g transform="translate(0.000000,946.000000) scale(0.100000,-0.100000)"
fill="#fff" stroke="none">
<path d="M12170 9450 c-12 -8 -9 -15 20 -37 19 -15 63 -54 98 -87 l62 -59 0
-60 c0 -111 -55 -181 -163 -208 -40 -10 -59 -9 -119 6 -65 16 -72 16 -80 1
-10 -18 -53 -22 -63 -6 -10 15 -93 55 -150 71 -27 8 -88 14 -135 14 -95 0
-151 -22 -187 -71 -18 -25 -25 -27 -89 -26 -38 0 -116 12 -174 26 -102 25
-250 36 -250 18 0 -4 -20 -18 -45 -30 -25 -12 -45 -26 -45 -32 0 -13 10 -13
56 4 121 42 253 21 394 -61 3 -2 10 7 15 19 6 13 22 27 37 32 23 8 39 3 98
-27 63 -33 70 -35 70 -18 0 10 -7 21 -15 25 -24 9 -17 43 13 64 61 44 167 51
247 18 47 -20 106 -76 126 -121 10 -22 19 -64 19 -92 0 -49 2 -53 23 -53 44 0
61 -32 54 -103 -5 -58 -4 -64 16 -72 15 -7 25 -24 31 -53 8 -38 15 -46 52 -64
24 -11 59 -40 80 -64 66 -81 120 -100 70 -24 -34 52 -33 66 8 80 54 18 112 75
182 182 82 124 117 164 165 189 l38 19 17 -25 c14 -22 15 -34 5 -81 -12 -61
-9 -76 14 -68 13 5 13 2 0 -22 -9 -17 -15 -56 -15 -94 0 -47 -6 -74 -20 -98
-24 -39 -26 -70 -5 -78 8 -4 15 -15 15 -25 0 -15 -7 -19 -34 -19 -40 0 -66 -8
-66 -21 0 -5 8 -9 18 -9 11 0 27 -8 36 -19 16 -18 15 -19 -29 -32 -49 -14 -53
-20 -30 -39 23 -19 18 -28 -22 -45 -57 -24 -67 -35 -46 -52 14 -11 15 -16 5
-20 -27 -11 -68 -52 -52 -53 24 0 116 57 154 95 33 33 166 216 166 229 0 3
-10 6 -23 6 -28 0 -67 26 -67 45 0 7 26 29 58 49 32 19 66 44 77 56 18 20 18
20 -23 20 -22 0 -43 3 -46 8 -2 4 2 37 11 72 18 76 12 153 -17 218 l-20 45
-87 -7 -87 -7 19 21 c15 17 18 35 17 95 -1 47 -7 83 -16 97 -8 13 -20 48 -26
78 -21 99 -115 208 -228 265 -53 26 -87 31 -112 15z m336 -384 c10 -41 -15
-131 -50 -181 -30 -41 -117 -115 -136 -115 -4 0 -6 10 -6 23 1 18 -5 23 -32
25 -40 4 -62 -12 -62 -44 0 -13 -4 -24 -10 -24 -5 0 -10 9 -10 19 0 22 -42 57
-105 89 -52 26 -99 76 -92 96 8 21 31 20 96 -3 69 -24 104 -15 192 50 118 87
203 113 215 65z m-76 -330 c-42 -98 -173 -197 -282 -212 -45 -6 -45 -6 -53 27
-5 19 -9 38 -9 42 -1 5 42 23 96 41 103 35 192 83 235 128 15 15 28 26 30 24
2 -2 -6 -24 -17 -50z"/>
<path d="M10580 9371 c-14 -5 -56 -25 -93 -45 -38 -20 -79 -36 -91 -36 -22 0
-69 -43 -98 -90 -30 -50 -50 -131 -50 -209 -1 -137 36 -242 114 -327 l41 -44
-37 -55 c-19 -30 -47 -62 -60 -70 -23 -15 -27 -15 -58 1 -49 25 -121 80 -237
182 -158 138 -228 168 -520 221 -95 17 -96 17 -126 -3 -30 -21 -30 -22 -29
-111 2 -89 2 -90 32 -110 37 -24 51 -52 63 -125 5 -30 11 -66 15 -81 7 -32
-21 -46 -113 -55 -38 -3 -90 -12 -117 -20 -63 -18 -127 -18 -196 1 -76 20
-111 19 -204 -9 -53 -16 -128 -29 -216 -35 -137 -11 -342 -49 -505 -94 -49
-14 -130 -27 -178 -30 -76 -5 -96 -11 -135 -36 -78 -49 -187 -73 -496 -111
-93 -11 -213 -32 -267 -45 -82 -21 -121 -25 -248 -25 -125 0 -159 -3 -199 -19
-51 -20 -81 -19 -253 8 -35 6 -138 11 -229 11 -91 0 -433 7 -760 15 -327 8
-858 19 -1180 25 -784 14 -994 35 -1460 145 -266 63 -497 97 -750 110 -63 3
-203 13 -310 22 -279 22 -540 6 -540 -35 0 -8 -22 -39 -50 -68 -36 -38 -50
-61 -50 -81 0 -21 -8 -33 -29 -46 -59 -35 -142 -121 -194 -201 -177 -270 -236
-648 -171 -1108 29 -210 32 -346 9 -523 -19 -154 -19 -185 0 -185 19 0 19 -4
-2 -115 -15 -78 -18 -172 -19 -730 -1 -663 -6 -757 -45 -948 -35 -168 -83
-284 -165 -398 -26 -35 -38 -67 -50 -129 -21 -111 -29 -129 -79 -175 -48 -45
-59 -75 -74 -206 -5 -47 -23 -139 -40 -205 -47 -187 -48 -206 -11 -297 45
-113 62 -212 62 -362 0 -119 -7 -186 -27 -240 -5 -14 1 -11 23 11 48 51 72
130 72 239 0 79 -7 121 -41 252 -29 110 -43 187 -46 253 -6 106 9 185 32 176
8 -3 23 6 35 21 l20 26 -6 -45 c-10 -70 11 -65 35 7 27 84 27 94 -4 65 l-25
-23 0 77 c0 81 17 140 49 166 11 9 22 41 29 80 7 39 33 110 67 180 30 63 63
151 74 195 31 129 41 146 88 158 26 6 41 -8 19 -16 -15 -6 -36 -65 -36 -99 0
-10 7 -18 15 -18 21 0 19 -19 -10 -83 -56 -121 -66 -251 -40 -502 8 -77 15
-197 15 -267 l0 -126 -30 -30 c-16 -17 -30 -38 -30 -48 0 -9 3 -14 6 -11 9 8
44 -11 44 -23 0 -6 -13 -10 -30 -10 -35 0 -39 -17 -16 -72 28 -65 30 -130 8
-182 -12 -25 -25 -46 -30 -46 -5 0 -14 24 -21 53 -11 51 -34 97 -49 97 -4 0
-5 -41 -3 -91 4 -104 -8 -158 -52 -246 -38 -77 -96 -139 -152 -163 -39 -17
-45 -25 -74 -94 -58 -139 -84 -258 -85 -386 -1 -112 17 -230 36 -230 4 0 8 35
8 78 0 95 24 275 46 351 37 131 108 221 209 267 43 20 58 35 87 82 19 31 55
91 81 132 57 92 86 171 94 259 4 37 16 86 29 111 48 96 78 289 72 460 -4 86
-9 116 -30 165 -69 157 -62 328 31 711 61 253 88 415 76 456 -5 16 -4 20 3 13
16 -15 49 -194 62 -330 23 -249 54 -384 105 -450 44 -58 79 -150 120 -318 20
-78 40 -157 46 -175 9 -26 8 -46 -4 -90 -9 -32 -18 -109 -22 -172 -4 -63 -14
-142 -22 -175 -27 -103 -97 -233 -227 -424 -69 -102 -126 -194 -126 -206 0
-11 18 -79 41 -150 79 -255 102 -394 76 -477 -14 -45 -14 -48 6 -61 31 -20 35
-90 30 -447 -6 -340 0 -399 49 -497 19 -38 26 -43 54 -43 18 0 44 -5 58 -11
25 -12 25 -13 19 -108 -4 -74 -2 -110 11 -153 40 -138 184 -244 411 -303 53
-13 64 -14 90 -1 17 8 52 25 78 37 65 29 87 54 87 100 0 42 -56 208 -76 225
-7 6 -34 62 -60 125 -50 123 -102 231 -139 288 -15 24 -25 58 -29 106 -4 39
-23 156 -44 260 -32 164 -37 208 -36 325 0 162 13 218 107 471 35 96 72 199
82 229 10 30 24 63 32 72 8 9 12 22 8 27 -9 15 55 132 114 211 70 93 166 188
334 329 111 93 147 129 147 146 0 26 48 80 79 88 36 9 28 -80 -15 -183 -77
-182 -86 -213 -87 -280 0 -60 5 -74 65 -195 75 -149 83 -178 98 -335 6 -63 15
-132 21 -153 8 -30 6 -59 -10 -135 -27 -131 -48 -282 -62 -432 -28 -323 40
-513 201 -561 l38 -11 -20 -46 c-44 -100 2 -214 126 -311 l58 -46 97 3 c68 2
110 -2 140 -13 52 -18 139 -19 194 -3 53 16 80 58 71 113 -6 40 -50 156 -63
165 -3 3 -12 17 -18 31 -6 14 -31 50 -55 80 -70 85 -79 104 -94 182 -9 51 -34
113 -83 212 -47 95 -73 161 -81 205 -8 42 -11 194 -11 430 1 353 2 366 22 393
15 21 18 32 10 40 -16 16 -14 62 4 77 8 7 15 19 15 26 0 8 16 65 36 127 24 73
79 195 159 352 169 333 209 438 235 633 7 51 16 92 20 92 12 0 179 -69 266
-110 182 -85 417 -242 566 -379 57 -52 72 -61 105 -61 62 -1 115 -17 231 -70
60 -27 120 -50 133 -49 101 2 109 4 103 22 -7 22 0 22 34 -2 16 -12 50 -21 85
-23 50 -4 57 -3 57 14 0 12 -9 20 -28 24 -28 6 -41 37 -21 50 6 3 57 0 115 -7
72 -9 107 -10 115 -2 7 7 1 14 -20 23 -38 16 -41 34 -4 27 395 -70 740 -88
915 -48 151 35 256 44 449 38 370 -10 679 -98 1167 -332 l152 -74 0 -163 c0
-149 2 -164 19 -175 10 -6 21 -22 24 -35 3 -13 14 -48 25 -78 l21 -55 -21 -16
-21 -17 24 -12 c36 -20 40 -29 33 -102 -10 -104 1 -144 72 -273 36 -64 72
-134 79 -155 23 -65 44 -218 61 -435 24 -324 62 -456 156 -540 41 -38 62 -42
92 -20 56 42 95 -6 81 -98 -17 -103 -12 -151 17 -189 70 -92 343 -180 560
-180 121 0 175 20 170 65 -3 25 0 27 36 27 54 0 85 36 116 133 40 125 49 185
50 307 1 149 -8 174 -150 425 -130 230 -184 358 -213 502 -28 138 -28 208 3
253 17 26 25 56 30 115 4 44 18 161 31 260 36 268 40 358 21 431 -9 34 -16 73
-16 87 0 32 42 67 80 67 43 0 104 25 181 75 39 25 84 48 100 52 35 7 99 74
132 140 28 54 69 184 121 380 64 242 130 345 259 408 58 27 78 43 100 79 15
25 46 62 67 84 31 31 40 47 40 74 0 22 13 54 35 88 l34 55 1 195 c0 249 12
368 55 560 44 199 79 268 235 470 66 85 134 182 152 215 21 41 45 70 74 90 60
41 111 111 193 263 84 158 116 206 170 255 50 45 106 74 171 88 45 10 54 9 71
-7 36 -32 129 -31 236 4 l92 30 21 -23 c33 -35 104 -62 210 -80 139 -23 200
-43 243 -77 l39 -30 76 15 c43 9 127 28 187 42 61 14 156 28 213 32 l103 6 30
36 c62 75 118 230 119 326 0 22 -6 65 -14 95 -12 45 -22 62 -58 90 -222 178
-353 374 -350 520 1 75 -13 126 -74 263 -38 85 -44 106 -44 167 0 67 -1 70
-24 70 -30 0 -56 -24 -56 -52 0 -11 16 -62 36 -112 19 -50 39 -102 45 -116 5
-14 27 -95 49 -180 47 -183 95 -286 205 -443 68 -97 74 -109 60 -123 -21 -22
-19 -38 11 -73 32 -38 44 -39 44 -3 0 26 20 70 20 45 0 -7 19 -22 43 -34 69
-35 70 -37 39 -73 -15 -17 -40 -57 -55 -88 l-28 -57 25 -38 c41 -59 36 -69
-41 -86 -38 -9 -104 -21 -148 -27 -159 -22 -241 -42 -315 -77 -88 -43 -98 -40
-168 47 -42 51 -87 90 -104 90 -19 0 -5 -37 23 -66 23 -24 30 -38 24 -51 -8
-17 -8 -17 -12 2 -7 30 -32 45 -75 45 -38 0 -40 2 -63 54 -13 29 -27 71 -31
92 -11 63 -19 72 -69 76 -37 2 -45 0 -45 -13 0 -10 16 -26 35 -38 31 -18 34
-24 25 -40 -5 -11 -10 -44 -10 -73 0 -90 -11 -92 -79 -18 -51 54 -61 61 -61
43 0 -28 -4 -28 -39 -4 -44 32 -77 36 -90 12 -18 -33 -79 -46 -152 -32 -73 15
-151 44 -190 72 -30 21 -39 23 -39 9 0 -5 14 -16 30 -25 17 -9 30 -22 30 -31
0 -13 -2 -13 -22 0 -31 22 -47 20 -120 -14 -34 -16 -70 -30 -79 -30 -10 0 -41
16 -70 36 -63 43 -203 111 -308 148 -101 36 -103 38 -121 93 -17 48 -17 48
-65 51 l-47 3 4 -58 c6 -79 31 -127 105 -200 66 -66 97 -78 106 -42 5 20 11
21 71 17 176 -15 267 -177 159 -285 -39 -38 -39 -36 14 -70 16 -10 14 -11 -12
-10 -26 2 -33 -3 -50 -41 -15 -32 -25 -42 -37 -38 -16 4 -17 -2 -12 -49 6 -53
6 -54 -39 -101 -39 -40 -48 -46 -61 -34 -14 11 -16 9 -16 -8 0 -12 -4 -24 -10
-27 -20 -12 -10 -35 14 -35 29 0 44 -18 22 -26 -8 -3 -25 1 -38 10 -12 9 -30
16 -40 16 -14 0 -16 -6 -12 -30 4 -16 3 -37 0 -46 -6 -15 -8 -16 -24 0 -26 23
-32 20 -32 -13 0 -21 -8 -36 -29 -51 -16 -11 -31 -30 -33 -43 -2 -16 -10 -22
-25 -21 -21 1 -23 -4 -23 -48 0 -54 -11 -60 -47 -26 -34 31 -47 13 -29 -39 11
-33 12 -45 2 -58 -11 -15 -13 -15 -30 4 -11 12 -23 21 -28 21 -4 0 -8 -31 -8
-70 0 -75 -10 -90 -25 -37 -14 47 -30 31 -31 -33 -1 -30 -2 -61 -3 -67 -2 -24
-27 -13 -66 27 -48 49 -96 73 -130 64 -32 -8 -31 -47 0 -53 11 -2 30 -7 43
-12 l24 -9 -26 -31 c-14 -16 -31 -48 -37 -69 -19 -61 -39 -46 -39 28 0 45 -14
72 -24 47 -10 -26 -7 -171 4 -200 9 -22 6 -29 -18 -50 -15 -13 -28 -22 -30
-21 -1 2 -4 39 -5 82 -2 44 -9 90 -17 104 -13 24 -14 22 -26 -52 -14 -88 -24
-111 -35 -82 -4 10 -8 36 -8 57 -1 35 -3 37 -35 37 -33 0 -34 2 -41 48 -7 49
-28 92 -45 92 -13 0 -13 -145 0 -189 5 -18 17 -45 27 -60 l17 -26 5 23 c8 33
23 31 48 -9 12 -19 29 -42 37 -51 12 -13 13 -24 6 -43 -8 -20 -5 -32 14 -59
16 -23 25 -57 30 -103 6 -62 25 -103 47 -103 4 0 13 26 19 58 14 66 30 99 58
125 20 19 21 18 51 -42 40 -77 63 -166 55 -208 -7 -37 -24 -35 -24 2 0 13 -16
54 -36 92 -39 75 -62 106 -44 58 52 -135 66 -382 30 -514 -29 -103 -54 -147
-121 -213 -41 -40 -75 -63 -116 -78 -53 -19 -61 -26 -87 -75 -41 -78 -95 -125
-146 -125 -49 0 -51 10 -4 35 46 25 94 80 94 108 -1 21 -1 21 -12 2 -17 -28
-45 -50 -113 -86 -57 -30 -115 -75 -115 -89 0 -10 177 -43 200 -37 18 5 20 1
20 -51 0 -32 4 -74 9 -94 l9 -36 -33 5 c-31 5 -32 4 -44 -43 -23 -92 -100
-222 -181 -306 -86 -87 -155 -126 -245 -135 -30 -3 -55 -9 -55 -14 0 -17 -53
-69 -71 -69 -23 0 -25 13 -4 30 19 16 19 26 -1 34 -11 4 -19 -4 -29 -28 -18
-43 -29 -50 -45 -31 -18 21 -55 19 -135 -10 -85 -30 -95 -30 -128 -5 l-25 20
25 83 c37 122 88 222 143 279 l49 51 71 -7 c39 -3 87 -13 106 -21 19 -8 34
-11 34 -8 0 5 -37 70 -47 83 -2 2 -25 7 -51 10 -26 3 -47 10 -48 15 0 6 -4 18
-8 28 -18 39 52 62 116 38 100 -37 96 -15 -13 68 -43 34 -82 61 -85 61 -3 0
-3 -15 0 -34 10 -50 -9 -53 -39 -6 -25 39 -55 54 -55 26 0 -7 7 -30 15 -50 15
-35 15 -37 -7 -45 -26 -9 -38 1 -38 34 0 27 -36 85 -53 85 -19 0 -44 -30 -52
-62 -5 -19 -1 -32 14 -47 28 -28 46 -27 27 1 -20 28 -20 48 -3 48 22 0 47 -35
47 -66 0 -44 15 -62 37 -46 31 21 44 25 55 14 7 -7 3 -17 -11 -31 -16 -16 -34
-21 -71 -21 -35 0 -52 -5 -58 -16 -8 -15 -11 -15 -31 5 -28 28 -56 29 -41 1 8
-15 5 -24 -16 -44 -21 -19 -25 -30 -20 -50 6 -24 4 -26 -29 -26 -43 0 -54 -21
-27 -50 31 -33 43 -136 22 -185 -7 -16 -9 -11 -9 22 -1 51 -9 73 -27 73 -8 0
-14 -10 -14 -26 0 -14 -11 -73 -24 -132 -30 -133 -33 -157 -50 -369 -16 -191
-13 -240 30 -413 30 -119 41 -233 26 -270 -11 -25 -11 -24 -11 8 -1 19 -6 32
-14 32 -9 0 -16 -36 -25 -122 -6 -68 -20 -158 -30 -200 -18 -74 -18 -78 -2
-78 10 0 24 -8 31 -17 12 -15 12 -16 -3 -11 -9 4 -22 0 -31 -10 -12 -15 -11
-31 13 -137 47 -211 56 -233 92 -243 28 -7 33 -14 48 -70 20 -71 49 -119 134
-217 70 -79 101 -127 111 -168 6 -24 2 -35 -31 -69 -22 -22 -77 -61 -123 -86
-92 -52 -172 -115 -134 -105 17 4 30 -3 50 -26 15 -17 32 -31 38 -31 6 0 33
23 60 51 50 51 164 144 169 138 95 -134 209 -304 210 -316 4 -47 -148 -39
-334 17 -142 42 -196 75 -186 113 3 14 1 17 -12 11 -9 -4 -29 -9 -43 -11 -25
-5 -27 -2 -37 54 -6 32 -16 103 -22 158 -7 54 -21 123 -32 153 -19 51 -71 122
-89 122 -10 0 -29 -66 -29 -105 0 -34 -19 -77 -37 -82 -13 -5 -56 83 -71 147
-6 25 -16 101 -22 170 -19 223 -31 303 -67 450 -20 80 -36 174 -37 210 -1 59
-6 75 -61 175 -83 151 -104 213 -105 305 0 77 -8 120 -53 295 -14 55 -42 213
-62 350 -61 412 -82 483 -164 558 -78 71 -73 36 18 -112 52 -85 65 -121 74
-198 7 -61 -10 -56 -83 27 -34 39 -73 73 -86 76 -31 8 -55 72 -90 240 -40 194
-78 292 -129 334 -17 14 -18 12 -12 -37 3 -29 24 -96 46 -149 44 -106 51 -156
25 -206 l-16 -31 -18 40 c-18 40 -56 75 -97 87 -32 10 -31 -22 2 -75 40 -62
48 -89 28 -89 -9 0 -30 12 -45 27 -31 30 -36 18 -12 -29 17 -32 8 -53 -17 -43
-8 3 -26 22 -41 42 -16 20 -28 30 -28 22 0 -9 7 -24 15 -35 8 -10 15 -27 15
-36 0 -33 -27 -18 -69 36 -23 30 -49 57 -57 60 -23 9 -16 -20 12 -54 15 -17
24 -34 20 -37 -12 -13 -56 17 -88 61 -18 25 -36 45 -40 46 -13 0 -9 -25 7 -46
19 -26 20 -55 0 -48 -8 3 -37 35 -65 70 -28 35 -55 64 -60 64 -22 0 -8 -33 31
-75 22 -24 38 -49 35 -54 -10 -16 -76 -25 -89 -12 -15 15 -27 14 -27 -3 0 -14
39 -50 63 -59 7 -2 9 -8 5 -12 -4 -4 -35 6 -70 23 -35 16 -94 42 -132 58 -38
15 -89 43 -113 61 -23 18 -43 29 -43 25 0 -15 24 -39 63 -61 39 -24 47 -45 21
-55 -38 -15 -60 -5 -107 46 -48 52 -50 51 -31 -12 8 -25 -12 -27 -38 -3 -17
15 -21 15 -54 0 -40 -20 -122 -32 -273 -42 -57 -4 -127 -13 -157 -20 -53 -12
-54 -12 -54 10 0 13 -7 26 -16 29 -12 5 -15 0 -12 -22 5 -43 -33 -42 -67 2
-35 46 -57 48 -53 4 3 -29 0 -33 -27 -39 -84 -18 -158 -5 -206 38 -15 12 -17
11 -23 -12 -8 -32 -20 -32 -43 1 -42 61 -82 87 -69 44 3 -11 9 -29 12 -40 9
-28 -22 -26 -37 3 -6 12 -19 30 -28 40 -15 18 -16 18 -21 -5 -5 -18 -13 -23
-35 -23 -24 0 -33 7 -46 34 -17 36 -53 58 -65 40 -3 -6 -1 -16 5 -22 16 -16
13 -37 -5 -37 -39 0 -128 34 -158 61 -23 20 -36 25 -43 18 -18 -18 -82 19
-101 58 -18 37 -38 43 -47 13 -8 -25 -35 -26 -35 -2 0 11 -9 27 -20 37 -11 10
-20 26 -20 36 0 16 -2 17 -27 3 -16 -7 -34 -14 -40 -14 -33 0 1 -42 100 -126
20 -17 37 -37 37 -44 0 -10 -4 -9 -17 1 -15 13 -16 11 -11 -14 4 -19 1 -27 -9
-27 -8 0 -66 27 -130 60 -63 34 -118 59 -120 56 -15 -14 13 -59 62 -100 91
-79 70 -84 -63 -17 -92 47 -118 57 -120 45 -5 -22 25 -52 83 -82 35 -18 45
-27 32 -30 -31 -6 -87 19 -136 62 -131 113 -118 106 -137 85 -16 -17 -19 -16
-88 42 -163 138 -421 279 -690 379 -154 57 -205 80 -256 118 -25 19 -47 27
-77 27 -42 0 -54 7 -33 20 28 17 6 34 -68 50 -42 9 -83 20 -90 24 -8 5 16 25
70 59 70 44 84 58 93 88 5 20 22 46 36 56 24 18 37 19 188 12 127 -5 161 -10
161 -21 0 -25 27 -25 53 1 15 14 36 26 48 26 18 0 20 -4 14 -22 -18 -61 -18
-70 1 -66 10 2 29 19 42 38 28 42 50 56 64 42 7 -7 4 -23 -11 -52 -27 -52 -26
-60 4 -60 21 0 26 8 40 52 22 76 20 87 -22 104 -20 9 -46 22 -59 31 -22 14
-22 16 -8 39 21 31 22 93 4 105 -25 15 -29 11 -36 -41 -6 -46 -23 -70 -49 -70
-3 0 -5 34 -4 75 1 51 -3 80 -12 92 -12 14 -15 8 -19 -53 l-5 -69 -33 -3 c-37
-4 -38 0 -17 58 19 54 19 84 0 100 -22 18 -27 9 -34 -67 -7 -77 -12 -88 -41
-96 -30 -8 -35 15 -16 63 20 50 21 104 1 120 -12 10 -16 8 -25 -15 -5 -14 -10
-48 -10 -73 0 -51 -21 -92 -47 -92 -13 0 -14 8 -8 48 10 59 9 82 -4 95 -16 16
-22 4 -31 -70 -7 -56 -14 -72 -36 -91 -37 -32 -45 -15 -31 66 10 66 7 78 -18
69 -11 -5 -15 -20 -15 -56 0 -42 -3 -51 -21 -56 -20 -7 -58 -75 -59 -105 -1
-67 -254 -243 -490 -341 -77 -32 -82 -39 -20 -36 56 2 80 -16 36 -27 -30 -7
-64 -63 -99 -158 -36 -100 -52 -121 -89 -116 -36 6 -48 -14 -24 -41 9 -10 16
-28 16 -40 0 -23 -6 -23 -58 -4 -17 7 -15 -22 3 -37 22 -18 18 -28 -10 -23
-25 5 -30 -4 -37 -67 -2 -19 -10 -26 -30 -28 -25 -3 -28 -8 -28 -38 0 -30 -6
-38 -46 -64 -25 -16 -92 -73 -148 -127 -55 -53 -108 -96 -116 -95 -9 1 -26 -9
-38 -23 -12 -14 -29 -25 -37 -25 -10 0 -15 -10 -15 -27 0 -36 -20 -64 -102
-144 -71 -67 -82 -89 -48 -89 11 0 20 -6 20 -14 0 -16 -21 -26 -54 -26 -37 0
-66 -28 -66 -63 -1 -46 -37 -128 -108 -241 -66 -104 -95 -156 -107 -194 -6
-21 -4 -22 21 -16 21 5 26 4 21 -7 -91 -210 -97 -344 -31 -776 14 -92 28 -232
31 -311 6 -141 6 -142 37 -177 42 -48 77 -51 89 -7 12 39 28 41 49 4 44 -76
58 -184 33 -244 -6 -15 -2 -18 25 -18 46 0 82 -43 113 -137 14 -43 28 -85 32
-94 4 -12 -11 -26 -62 -57 -37 -22 -78 -43 -90 -47 -24 -7 -162 36 -266 83
-70 32 -102 66 -138 147 -29 66 -38 237 -16 308 15 46 14 50 -5 85 -25 44 -48
72 -58 72 -5 0 -11 -12 -15 -27 -11 -48 -33 -73 -64 -73 -28 0 -28 0 -34 78
-10 131 -31 1091 -24 1098 3 3 42 -8 86 -25 44 -17 93 -31 108 -31 l28 1 -23
19 c-12 10 -58 30 -102 45 -99 33 -134 64 -143 125 -3 25 -24 91 -46 146 -45
111 -50 159 -23 216 18 40 182 215 182 195 0 -6 -12 -39 -25 -72 -25 -61 -33
-125 -15 -125 6 0 10 10 10 23 0 12 25 74 56 137 65 133 104 232 104 261 0 16
-5 20 -20 16 -11 -3 -22 -2 -25 2 -8 15 23 46 47 46 21 0 24 6 35 90 51 376
31 630 -64 790 -33 55 -48 91 -51 127 -4 40 -9 51 -28 58 -44 17 -72 148 -109
505 -14 137 -20 165 -76 325 -87 253 -97 290 -116 440 -13 102 -18 210 -17
440 0 306 11 451 50 674 14 79 13 81 -7 97 -19 14 -20 20 -10 55 18 65 12 152
-20 294 -41 181 -47 271 -24 343 15 49 16 61 4 89 -20 50 -14 132 20 269 17
68 37 158 45 200 28 148 93 274 196 380 79 80 150 118 280 149 116 27 154 44
168 75 7 15 8 25 2 25 -13 0 -219 -56 -253 -69 -44 -17 -44 -14 -3 28 84 86
217 117 433 101 70 -6 182 -13 248 -16 82 -4 311 -37 720 -105 330 -55 648
-103 707 -108 78 -5 114 -13 135 -27 l28 -19 -45 -7 c-25 -3 -70 -7 -101 -7
-91 -1 -200 -42 -167 -62 18 -12 164 -11 218 2 166 37 223 67 168 88 -23 9
-22 9 5 16 22 6 31 3 42 -12 13 -19 32 -20 462 -27 246 -3 572 -11 723 -16
151 -5 437 -15 635 -21 198 -7 611 -13 917 -13 307 -1 558 -4 558 -8 0 -4 -4
-18 -10 -32 -9 -24 -8 -26 21 -26 28 0 30 2 27 32 l-3 32 255 38 c140 20 305
48 365 61 61 14 112 23 114 21 3 -2 -5 -13 -17 -24 -29 -27 -28 -40 3 -40 19
0 29 9 44 39 23 44 50 60 63 36 5 -8 20 -15 33 -15 14 0 25 -3 25 -7 0 -17
-228 -103 -273 -103 -17 0 -18 2 -6 16 12 15 10 16 -21 9 -19 -4 -62 -20 -95
-35 l-60 -27 155 -7 c225 -10 317 7 394 74 l37 33 -26 17 -26 17 36 32 c20 17
39 31 44 31 18 0 20 -15 4 -32 -21 -23 -9 -36 15 -15 19 18 71 41 116 51 23 6
27 4 23 -8 -9 -22 81 -19 93 4 5 10 22 22 37 28 30 11 103 23 103 17 0 -2 -20
-28 -43 -57 -57 -70 -82 -108 -70 -108 11 0 52 43 82 88 12 18 36 39 52 47 27
14 29 14 29 -2 0 -9 -9 -36 -21 -59 -22 -47 -73 -84 -179 -130 -36 -15 -74
-34 -85 -41 -18 -12 -17 -13 16 -13 95 0 203 55 290 148 43 44 50 57 37 60
-26 5 -22 39 8 67 19 17 43 26 86 31 53 6 59 9 56 28 -4 22 -8 23 -43 10 -13
-4 -4 10 25 40 46 48 91 65 70 27 -5 -11 -10 -34 -10 -51 0 -47 30 -35 58 23
16 35 28 47 44 47 21 0 21 -1 -6 -29 -27 -28 -28 -51 -2 -51 7 0 25 14 42 31
32 34 84 65 84 50 0 -5 -15 -19 -34 -30 -37 -23 -52 -49 -37 -64 5 -5 38 11
86 43 42 28 92 58 110 66 35 14 87 19 98 8 3 -3 -21 -40 -54 -81 -86 -108 -91
-126 -16 -56 66 62 108 81 148 68 20 -7 20 -8 6 -17 -11 -6 -17 -22 -17 -43 0
-29 -7 -40 -44 -67 -45 -33 -75 -73 -63 -84 12 -13 76 7 100 32 14 13 41 56
61 94 20 38 46 76 56 83 22 15 17 27 -11 27 -14 0 -29 18 -29 35 0 1 17 -2 39
-7 30 -8 61 -5 141 12 57 11 106 17 110 13 4 -4 13 -24 20 -43 40 -108 134
-226 235 -295 58 -41 61 -45 45 -75 -8 -14 -6 -29 4 -55 13 -30 18 -34 33 -26
25 13 56 48 87 98 31 51 31 53 6 53 -24 0 -25 11 -4 52 23 45 4 58 -36 25 -39
-33 -101 -52 -112 -34 -4 6 -8 18 -8 25 0 7 -42 55 -93 105 -108 106 -112 116
-101 261 4 64 3 99 -5 115 -9 16 -9 29 -1 54 10 25 9 46 -4 100 -22 94 -21
140 2 134 9 -3 52 -13 95 -22 161 -34 336 -120 441 -216 49 -44 55 -54 49 -80
-6 -33 10 -39 38 -13 22 20 57 11 40 -9 -7 -10 -7 -24 1 -50 14 -45 7 -54 -28
-38 -15 6 -29 9 -32 7 -8 -9 17 -33 49 -46 23 -10 28 -17 23 -32 -3 -12 1 -27
12 -39 20 -22 18 -22 -63 -5 -84 18 -115 39 -107 72 4 17 1 31 -12 45 -13 15
-18 37 -18 93 -1 66 -4 79 -31 117 -32 45 -63 63 -86 49 -11 -7 -9 -13 8 -32
35 -37 43 -73 43 -191 l0 -112 33 -15 c34 -16 51 -43 91 -147 23 -61 23 -63 4
-63 -25 0 -18 -28 21 -85 57 -86 175 -134 295 -121 47 5 63 3 78 -11 22 -20
24 -49 3 -57 -8 -3 -15 -12 -15 -20 0 -21 63 -29 102 -13 32 14 88 69 88 87 0
9 -62 30 -86 30 -6 0 -19 -9 -29 -20 -10 -11 -24 -20 -32 -20 -16 0 -33 40
-33 81 0 48 -36 55 -126 24 -61 -21 -77 -23 -98 -13 -31 14 -34 28 -5 21 12
-3 53 5 93 18 l71 24 34 66 c32 63 37 67 75 73 43 7 66 21 66 41 0 8 -28 14
-89 17 -145 9 -203 48 -205 140 -1 41 -1 41 44 53 54 14 102 38 120 60 8 9 33
30 57 46 41 29 44 29 73 14 93 -48 267 -68 345 -40 22 8 41 15 42 15 2 0 14
-23 29 -51 29 -59 68 -99 95 -99 25 0 24 16 -1 23 -22 6 -40 44 -40 85 0 15
-4 33 -9 41 -8 12 -12 13 -26 1 -14 -12 -15 -1 -9 123 8 153 0 188 -47 212
-32 17 -85 20 -94 5 -7 -11 -58 -14 -68 -3 -4 3 3 17 15 30 30 32 16 40 -33
18 -41 -19 -91 -24 -119 -13 -8 3 -37 48 -63 99 -42 83 -48 102 -48 157 -1 35
4 69 10 76 7 8 40 30 74 50 70 41 98 73 75 87 -16 10 -54 10 -88 0z m-120
-141 c0 -10 -14 -44 -30 -76 -26 -49 -30 -64 -24 -103 16 -113 104 -221 212
-261 47 -18 72 -21 142 -17 47 2 96 8 110 12 21 6 23 5 13 -6 -19 -19 -16 -61
7 -114 11 -26 20 -50 20 -54 0 -4 -20 -8 -43 -8 -24 -1 -87 -7 -141 -13 -53
-7 -117 -10 -141 -6 -104 14 -193 87 -249 205 -29 62 -31 73 -31 181 0 134 15
178 85 254 34 36 46 44 56 35 8 -6 14 -19 14 -29z m-1030 -450 c0 -33 -9 -43
-27 -29 -13 12 -18 61 -6 72 12 12 33 -15 33 -43z m-990 -498 c0 -19 -27 -32
-67 -32 -51 0 -56 16 -10 29 41 12 77 13 77 3z m1763 -55 c35 -13 40 -27 9
-27 -22 0 -82 31 -82 42 0 11 9 9 73 -15z m120 -86 c17 -17 -84 -13 -113 5
-24 14 -22 15 39 10 35 -2 68 -9 74 -15z m-75 -44 c32 1 27 -13 -9 -26 -51
-17 -97 -14 -109 8 -16 32 -13 34 43 26 28 -5 62 -8 75 -8z m-2513 -67 c7 -11
-74 -72 -86 -64 -13 8 -2 22 39 49 44 29 40 27 47 15z m2605 -1523 c0 -9 25
-42 55 -72 53 -53 69 -85 41 -85 -28 0 -65 42 -90 105 -26 66 -36 116 -16 85
5 -8 10 -23 10 -33z m126 -62 c32 -19 66 -35 75 -35 10 0 21 -5 24 -11 5 -7
-13 -8 -57 -3 -47 5 -67 12 -80 28 -15 19 -31 56 -23 56 1 0 29 -16 61 -35z
m1994 -224 c0 -12 -26 -20 -127 -41 -62 -12 -80 -13 -72 -4 14 17 72 36 139
44 30 4 56 8 58 9 1 0 2 -3 2 -8z m-2440 -2097 c-7 -30 -13 -54 -14 -52 -2 2
-6 27 -9 55 -5 42 -2 56 11 70 16 15 17 15 20 0 2 -9 -2 -42 -8 -73z m-6760
-64 c0 -15 -36 -30 -75 -30 -52 0 -40 23 16 31 24 3 47 7 52 7 4 1 7 -2 7 -8z
m97 -21 c-16 -26 -37 -24 -37 5 0 19 4 22 24 19 22 -4 23 -8 13 -24z m6613
-47 c-32 -60 -124 -161 -136 -149 -4 4 20 36 52 72 32 36 70 83 84 104 37 57
37 42 0 -27z m-210 -209 c-1 -10 -50 -46 -50 -37 0 11 32 44 42 44 4 0 8 -3 8
-7z m-7234 -232 c-10 -16 -23 -14 -30 5 -9 25 4 38 21 21 9 -8 12 -20 9 -26z
m-52 -87 c9 -3 16 -10 16 -14 0 -5 5 -21 10 -35 l10 -26 26 20 c27 21 74 29
74 12 0 -26 -40 -52 -100 -66 -36 -7 -75 -17 -87 -21 -34 -10 -28 11 12 42 34
26 45 57 25 69 -10 6 -14 25 -6 25 2 0 11 -3 20 -6z m-269 -339 c0 -10 -6 -20
-12 -22 -8 -3 -13 5 -13 22 0 17 5 25 13 23 6 -3 12 -13 12 -23z m5005 -17 c0
-11 -27 -10 -34 1 -4 5 -3 17 1 27 6 16 7 16 20 -2 7 -10 13 -21 13 -26z
m-6621 -81 c0 -18 -6 -50 -13 -72 -13 -40 -13 -40 -21 -13 -8 32 12 131 26
122 5 -3 9 -20 8 -37z m6336 -33 c29 -30 6 -45 -42 -29 -7 2 -13 14 -13 25 0
25 31 27 55 4z m-4465 -128 c0 -41 5 -78 10 -81 15 -9 28 35 22 78 -2 22 0 37
6 37 17 0 26 -21 37 -80 7 -40 16 -57 31 -64 19 -9 20 -11 6 -39 -18 -36 -7
-76 25 -93 16 -7 19 -14 12 -21 -8 -8 -8 -25 -1 -59 12 -53 10 -59 -12 -51
-26 10 -46 52 -61 128 -23 114 -25 119 -35 119 -6 0 -15 -11 -21 -24 -9 -18
-7 -34 9 -72 25 -61 35 -102 26 -115 -10 -17 -33 10 -45 54 -9 33 -13 38 -20
25 -6 -11 -4 -32 6 -60 21 -62 20 -78 -10 -78 -30 0 -45 26 -45 75 0 37 0 37
-35 31 -27 -5 -37 -3 -41 8 -10 26 -22 8 -30 -41 l-7 -47 -29 37 c-17 20 -34
37 -39 37 -12 0 -11 -40 2 -79 12 -35 6 -52 -13 -33 -14 14 -28 123 -18 137 4
6 10 32 13 58 2 26 8 51 11 55 13 13 40 -15 51 -54 l12 -39 7 36 c4 20 3 62
-3 94 -15 78 -14 85 7 85 33 0 42 -22 42 -100 0 -50 5 -83 14 -96 14 -18 15
-18 21 -2 4 10 2 32 -4 49 -18 52 -15 61 22 57 l32 -3 0 55 c0 54 0 55 -31 58
-32 3 -49 28 -38 57 7 18 44 34 82 34 l32 1 0 -74z m6845 54 c8 -14 -68 -93
-123 -129 -48 -30 -139 -61 -176 -61 -20 1 -20 1 -2 15 10 8 54 26 97 40 69
23 84 33 116 73 55 70 75 84 88 62z m-8741 -55 c7 -20 -3 -45 -19 -45 -19 0
-25 13 -18 38 6 25 28 29 37 7z m2014 -24 c3 -16 -1 -22 -10 -19 -7 3 -15 15
-16 27 -3 16 1 22 10 19 7 -3 15 -15 16 -27z m4650 -14 c18 -14 15 -27 -8 -27
-16 0 -40 26 -40 44 0 7 31 -4 48 -17z m-4852 -12 c4 -8 3 -23 0 -32 -6 -15
-8 -15 -16 -3 -13 20 -12 50 0 50 6 0 13 -7 16 -15z m5225 -45 c21 -12 26 -40
8 -40 -12 0 -38 29 -39 43 0 10 8 9 31 -3z m-6583 -73 c-7 -12 -11 -25 -10
-29 1 -5 -2 -8 -8 -8 -14 0 -13 43 2 58 18 18 29 3 16 -21z m-44 -106 c-10
-17 -22 -31 -26 -31 -14 0 -9 27 7 40 8 7 15 20 15 28 0 12 3 13 11 5 8 -8 6
-19 -7 -42z m7615 23 c29 -6 31 -9 31 -50 0 -32 4 -44 15 -44 9 0 12 6 8 18
-6 16 -5 16 14 0 26 -24 47 -23 40 1 -5 19 15 36 27 24 3 -4 6 -24 6 -45 0
-21 4 -38 8 -38 15 0 32 24 32 44 0 43 21 -3 40 -89 14 -64 20 -128 20 -223 0
-183 -28 -312 -87 -403 -19 -29 -29 -35 -48 -32 -20 4 -25 0 -34 -33 -13 -47
-15 -274 -2 -274 11 0 51 80 51 102 0 9 -6 19 -12 21 -7 3 -3 6 8 6 33 1 51
-36 95 -200 38 -144 68 -221 110 -281 11 -14 19 -42 19 -63 0 -45 20 -85 60
-119 25 -20 28 -27 16 -31 -9 -3 -23 -7 -31 -10 -38 -12 -29 -74 17 -117 39
-36 55 -25 38 26 -25 76 -8 75 72 -4 63 -62 79 -85 92 -130 9 -29 16 -66 16
-80 l0 -27 -52 13 c-29 7 -91 20 -137 28 -46 9 -96 22 -112 30 -26 13 -28 13
-31 -8 -2 -12 -9 -20 -18 -18 -88 21 -100 11 -45 -37 41 -35 119 -61 187 -61
26 0 48 -3 48 -7 0 -5 -9 -22 -19 -40 -11 -17 -26 -50 -33 -72 l-14 -41 -102
103 c-257 257 -376 504 -412 853 -5 55 -15 140 -21 190 l-11 91 37 84 c43 98
44 140 6 279 -22 79 -23 98 -18 270 3 102 11 233 18 293 l12 107 32 0 c18 0
47 -3 64 -6z m-6170 -171 c19 5 21 1 21 -43 0 -27 5 -52 11 -56 15 -9 -9 -24
-40 -24 -19 0 -22 -4 -17 -22 3 -13 9 -68 13 -123 7 -103 19 -97 22 12 0 28 6
55 13 59 7 4 30 -14 58 -46 42 -48 47 -51 62 -36 23 22 27 21 44 -19 23 -56
18 -117 -11 -145 l-25 -23 0 30 c0 37 -9 63 -21 63 -14 0 -11 -111 5 -166 28
-97 28 -101 4 -100 -35 1 -35 -32 -1 -40 42 -10 44 -13 27 -39 -9 -15 -13 -32
-9 -45 6 -19 5 -21 -13 -11 -31 17 -32 15 -32 -50 0 -44 3 -59 13 -56 7 2 11
19 10 40 -3 43 18 42 37 -3 19 -45 10 -65 -28 -64 -27 2 -32 -2 -32 -20 0 -26
28 -69 40 -61 14 8 20 -23 27 -130 l6 -103 24 9 c40 15 73 11 73 -8 0 -10 24
-67 52 -128 44 -91 53 -121 56 -177 3 -44 8 -68 16 -68 27 0 69 -62 116 -171
46 -105 72 -142 116 -167 15 -9 15 -12 -2 -42 -14 -24 -16 -34 -6 -37 19 -7
14 -23 -7 -23 -30 0 -77 45 -113 108 -17 31 -49 74 -70 95 -30 29 -38 46 -38
73 0 48 -23 99 -54 120 -15 9 -28 15 -29 13 -2 -2 -28 -32 -60 -67 -56 -62
-65 -83 -48 -111 13 -21 79 23 87 57 3 15 7 32 8 37 3 10 53 -66 116 -176 18
-33 49 -78 68 -100 19 -22 31 -43 28 -46 -4 -4 -47 -9 -95 -11 -182 -9 -301
41 -355 150 -33 66 -33 99 1 190 21 56 27 92 28 151 0 71 -2 81 -24 98 -51 42
-110 -2 -61 -46 42 -38 16 -85 -48 -85 -26 0 -32 6 -50 48 -54 126 -61 326
-23 662 29 262 26 477 -8 584 l-22 68 21 23 c20 21 21 27 11 58 -7 20 -19 41
-27 47 -20 17 -18 28 11 66 14 18 30 45 36 61 l10 28 28 -34 c21 -26 33 -33
50 -28z m131 -18 c6 -8 8 -20 4 -26 -5 -9 -11 -7 -21 6 -23 33 -9 51 17 20z
m6238 -792 l-1 -58 -6 50 c-6 48 -5 65 5 65 2 0 3 -26 2 -57z m68 -1236 c87
-106 123 -137 167 -146 29 -6 32 -10 35 -50 3 -41 2 -42 -20 -36 -122 37 -251
177 -274 299 -9 52 0 45 92 -67z"/>
<path d="M8830 975 c0 -43 16 -51 56 -30 19 10 23 15 11 15 -10 0 -22 11 -27
25 -15 39 -40 32 -40 -10z"/>
<path d="M8637 912 c-18 -19 -23 -52 -9 -52 8 0 16 14 40 63 7 14 -15 7 -31
-11z"/>
<path d="M9076 670 c20 -27 42 -50 50 -50 21 0 18 7 -22 56 -51 62 -73 57 -28
-6z"/>
<path d="M2390 2371 c0 -12 6 -21 16 -21 9 0 14 7 12 17 -5 25 -28 28 -28 4z"/>
<path d="M2480 2141 c0 -44 17 -54 40 -26 10 12 9 16 -4 21 -9 3 -16 12 -16
19 0 8 -4 17 -10 20 -6 4 -10 -10 -10 -34z"/>
<path d="M11533 8704 c13 -76 0 -243 -19 -251 -8 -3 -21 2 -28 12 -12 16 -13
16 -19 -11 -4 -19 -21 -39 -47 -56 -46 -32 -55 -72 -18 -84 43 -13 125 -6 166
15 44 22 62 46 62 81 0 21 -2 20 -36 -10 -50 -44 -96 -64 -128 -56 -14 3 -26
10 -26 15 0 4 35 27 79 50 75 41 97 63 103 105 5 33 -22 30 -28 -3 -4 -17 -12
-31 -20 -31 -10 0 -8 11 7 46 37 83 22 196 -30 224 -29 15 -29 15 -18 -46z"/>
<path d="M11850 8565 c-5 -14 -21 -27 -34 -31 -14 -3 -30 -12 -37 -20 -10 -12
-14 -12 -25 3 -21 30 -34 4 -27 -56 l6 -53 36 7 c53 10 98 41 126 89 32 54 31
59 -6 73 -28 11 -31 10 -39 -12z"/>
<path d="M11080 8517 c0 -49 37 -131 61 -135 14 -3 15 3 8 43 -11 57 -44 135
-58 135 -6 0 -11 -19 -11 -43z"/>
<path d="M11160 8479 c0 -43 46 -98 82 -99 16 0 16 3 -2 43 -29 63 -80 100
-80 56z"/>
<path d="M11260 8442 c0 -27 29 -62 51 -62 23 0 23 1 5 45 -16 38 -56 50 -56
17z"/>
<path d="M10050 8382 c0 -20 34 -52 55 -52 39 0 34 23 -8 42 -45 20 -47 21
-47 10z"/>
<path d="M12048 8325 c-2 -22 -9 -31 -28 -35 -23 -5 -26 -12 -31 -70 -4 -36
-16 -90 -27 -121 -17 -49 -17 -58 -5 -75 8 -10 35 -59 61 -109 47 -90 109
-165 137 -165 8 0 24 9 35 20 16 16 19 28 14 59 -6 36 -4 41 22 54 16 8 59 24
95 36 36 12 75 28 85 36 17 13 13 14 -47 15 -40 0 -73 5 -84 14 -19 14 -19 16
19 90 46 89 58 162 32 201 -23 35 -31 32 -45 -17 -21 -71 -60 -132 -121 -193
l-59 -58 6 109 c6 117 -4 176 -36 216 l-19 23 -4 -30z"/>
<path d="M10650 8320 c0 -44 54 -112 74 -93 15 15 4 57 -23 84 -35 34 -51 37
-51 9z"/>
<path d="M8895 8301 c-53 -32 -134 -131 -171 -207 -20 -42 -34 -78 -31 -81 10
-9 27 8 48 48 20 39 30 48 65 53 10 2 18 13 20 31 2 15 20 48 42 74 40 48 66
90 60 96 -2 3 -17 -4 -33 -14z"/>
<path d="M9239 8221 c-28 -27 -48 -54 -44 -60 9 -15 25 -14 25 2 0 7 14 26 31
43 30 29 55 64 44 64 -3 0 -28 -22 -56 -49z"/>
<path d="M8607 8182 c-22 -25 -21 -32 5 -32 20 0 20 -1 5 -18 -23 -25 -22 -52
3 -52 13 0 22 9 26 28 3 15 9 39 14 54 6 20 5 28 -7 32 -23 9 -29 7 -46 -12z"/>
<path d="M8462 8164 c-25 -17 -57 -73 -47 -82 11 -12 76 32 97 66 l20 32 -24
0 c-13 0 -34 -7 -46 -16z"/>
<path d="M10613 8155 l-43 -23 58 -28 c31 -16 60 -30 64 -32 7 -3 2 22 -14 76
-11 37 -9 37 -65 7z"/>
<path d="M8550 8119 c0 -7 -10 -23 -22 -36 -16 -17 -19 -26 -11 -34 15 -15 66
34 61 58 -4 20 -28 30 -28 12z"/>
<path d="M11350 8127 c0 -18 43 -116 61 -137 l20 -25 -6 45 c-9 57 -24 89 -52
108 -13 8 -23 12 -23 9z"/>
<path d="M11170 8103 c0 -17 17 -31 57 -52 52 -26 52 -26 46 0 -9 33 -103 81
-103 52z"/>
<path d="M8035 8038 c-13 -42 -56 -78 -92 -78 -41 0 -43 14 -4 30 16 6 38 21
48 32 18 20 18 21 -7 13 -55 -16 -147 -59 -196 -90 -61 -39 -79 -60 -38 -44
16 5 76 16 136 24 121 16 166 32 205 72 25 25 26 28 9 31 -10 2 -23 -1 -29 -7
-18 -18 -28 -12 -21 14 8 31 -2 33 -11 3z"/>
<path d="M10663 8030 c40 -22 78 -23 84 -4 2 6 -8 11 -24 12 -15 0 -44 3 -63
7 l-35 6 38 -21z"/>
<path d="M11121 7988 c36 -31 69 -88 69 -118 0 -33 -11 -70 -20 -70 -3 0 -28
21 -53 46 -33 32 -53 45 -69 42 -19 -3 -23 -8 -20 -37 2 -28 0 -32 -15 -26
-10 4 -28 10 -40 12 -28 6 -31 33 -4 33 34 0 33 18 -1 25 -58 13 -114 6 -199
-25 -45 -16 -91 -30 -101 -30 -14 0 -2 -16 39 -54 33 -30 71 -77 86 -105 l28
-50 -36 6 c-34 5 -35 5 -35 -28 0 -44 33 -99 60 -99 22 0 28 16 8 22 -8 3 -4
17 12 45 l23 41 28 -20 c48 -36 153 -22 210 28 13 12 19 11 37 -2 30 -21 28
-50 -4 -58 -53 -14 -70 -138 -32 -251 11 -35 17 -40 47 -43 37 -4 37 -7 7 76
-16 43 -13 92 7 92 5 0 24 11 42 24 l32 24 -8 67 c-5 37 -17 83 -28 101 l-20
34 20 0 c11 0 43 10 70 21 49 21 49 22 49 69 0 40 22 131 47 196 3 9 -2 14
-15 14 -12 0 -24 5 -27 10 -3 6 -13 10 -21 10 -12 0 -14 -14 -8 -88 5 -66 3
-95 -7 -113 -13 -23 -14 -21 -20 33 -9 85 -57 140 -139 162 l-25 7 26 -23z
m-23 -300 c3 -27 2 -28 -47 -28 -58 0 -63 9 -24 40 36 28 67 23 71 -12z"/>
<path d="M11545 7990 c-7 -23 10 -50 31 -50 17 0 18 42 2 58 -17 17 -26 15
-33 -8z"/>
<path d="M10630 7997 c0 -11 92 -67 108 -67 39 0 28 25 -21 47 -43 20 -87 30
-87 20z"/>
<path d="M4270 7971 c-14 -28 -13 -31 15 -31 20 0 25 5 25 25 0 30 -25 34 -40
6z"/>
<path d="M8305 7938 c-32 -27 -34 -33 -20 -41 19 -10 58 13 83 51 13 20 13 22
-6 22 -12 0 -38 -14 -57 -32z"/>
<path d="M8450 7947 c-32 -11 -72 -59 -59 -71 11 -11 82 19 97 42 20 31 5 43
-38 29z"/>
<path d="M7073 7929 c-50 -10 -104 -25 -120 -31 -27 -12 -25 -13 31 -16 64 -3
133 15 189 48 41 25 23 25 -100 -1z"/>
<path d="M2910 7931 c-13 -9 -13 -14 3 -44 12 -22 16 -43 11 -61 l-6 -27 63 3
c63 3 63 3 72 38 4 19 11 44 13 56 4 14 0 23 -12 28 -32 12 -129 17 -144 7z"/>
<path d="M4261 7894 c-11 -14 -23 -42 -27 -63 -3 -20 -15 -51 -25 -68 -18 -32
-18 -33 1 -43 33 -18 51 -13 45 13 -3 12 2 42 11 67 21 59 33 120 23 120 -4 0
-17 -12 -28 -26z"/>
<path d="M11555 7897 c-12 -9 -16 -20 -12 -32 7 -16 9 -16 30 -2 23 15 29 38
12 44 -6 2 -19 -3 -30 -10z"/>
<path d="M5500 7874 c0 -22 4 -25 28 -22 19 2 28 9 30 26 3 19 -1 22 -27 22
-27 0 -31 -4 -31 -26z"/>
<path d="M9920 7890 c0 -23 -50 -60 -80 -60 -56 0 -34 -31 42 -60 72 -27 98
-14 153 73 25 40 0 35 -38 -8 -49 -56 -93 -37 -51 23 8 12 12 27 9 32 -8 13
-35 13 -35 0z"/>
<path d="M6742 7858 c-19 -19 -15 -48 7 -48 18 0 51 34 51 52 0 13 -45 9 -58
-4z"/>
<path d="M11400 7848 c0 -14 -15 -46 -32 -72 -42 -60 -58 -89 -53 -94 2 -2 17
-1 33 3 22 4 30 12 30 29 0 13 11 41 26 62 30 44 33 66 11 84 -13 10 -15 9
-15 -12z"/>
<path d="M12287 7818 c-16 -22 -26 -47 -23 -55 8 -20 24 -7 41 35 23 54 14 65
-18 20z"/>
<path d="M10210 7840 c-90 -5 -150 -22 -150 -42 0 -5 6 -19 14 -31 22 -36 34
-113 40 -263 7 -165 23 -228 67 -269 25 -24 31 -26 25 -10 -22 60 -28 149 -21
331 7 185 8 194 27 194 35 0 88 32 103 61 18 34 19 40 3 37 -7 -1 -56 -4 -108
-8z"/>
<path d="M5490 7806 c0 -17 -9 -42 -20 -56 -25 -32 -25 -35 5 -48 38 -17 45
-15 45 13 0 14 7 42 15 61 17 42 14 50 -20 56 -22 5 -25 2 -25 -26z"/>
<path d="M7880 7815 c0 -11 12 -15 45 -15 33 0 45 4 45 15 0 11 -12 15 -45 15
-33 0 -45 -4 -45 -15z"/>
<path d="M7712 7804 c4 -22 54 -32 71 -15 15 15 6 21 -38 28 -33 5 -37 4 -33
-13z"/>
<path d="M11542 7760 c-22 -67 -13 -78 28 -35 15 16 34 25 53 25 28 0 29 1 15
22 -8 12 -29 28 -45 35 l-30 12 -21 -59z"/>
<path d="M10420 7777 c0 -40 84 -64 110 -32 15 18 15 19 -29 34 -46 15 -81 14
-81 -2z"/>
<path d="M6736 7755 c4 -18 -1 -33 -20 -56 -14 -17 -26 -37 -26 -45 0 -18 44
-18 59 0 18 22 25 81 12 105 -16 29 -33 27 -25 -4z"/>
<path d="M7962 7768 c-23 -23 -14 -38 24 -38 31 0 35 3 32 23 -3 25 -36 35
-56 15z"/>
<path d="M1596 7640 c-27 -114 -28 -121 -12 -146 37 -55 62 -7 74 141 10 109
7 124 -23 125 -6 0 -24 -54 -39 -120z"/>
<path d="M2900 7751 c0 -6 4 -11 10 -11 5 0 12 -11 16 -25 5 -21 12 -25 46
-25 48 0 78 15 78 38 0 12 -9 17 -32 17 -18 1 -52 4 -75 9 -29 5 -43 4 -43 -3z"/>
<path d="M1858 7728 c-9 -7 -24 -26 -34 -42 l-18 -29 39 5 c22 3 48 9 57 13
12 5 20 2 24 -10 12 -29 -14 -64 -71 -96 -65 -36 -95 -71 -95 -109 0 -26 3
-29 65 -39 79 -14 113 -7 121 25 9 36 -3 46 -46 39 -73 -12 -60 33 20 68 68
29 80 44 80 94 0 58 -33 93 -88 93 -21 0 -45 -6 -54 -12z"/>
<path d="M10015 7699 c-18 -29 -17 -194 1 -176 4 4 54 174 54 184 0 9 -50 1
-55 -8z"/>
<path d="M7938 7695 c-10 -11 5 -55 19 -55 10 0 13 9 11 27 -3 25 -18 40 -30
28z"/>
<path d="M9895 7688 c-19 -53 -79 -254 -91 -304 -7 -34 -15 -102 -16 -151 -3
-97 10 -135 53 -146 24 -6 24 -12 3 167 -7 56 -6 59 12 52 53 -22 54 -22 54
37 0 32 12 94 30 152 32 104 38 166 18 183 -24 18 -58 24 -63 10z m18 -112 c7
-16 -18 -54 -28 -44 -9 9 3 58 14 58 5 0 11 -6 14 -14z"/>
<path d="M4188 7666 c-14 -31 -4 -56 21 -56 13 0 21 9 26 30 4 16 4 34 0 40
-11 18 -35 11 -47 -14z"/>
<path d="M2970 7662 c0 -11 9 -27 20 -37 11 -10 20 -31 20 -47 0 -15 4 -28 8
-28 18 0 32 26 32 57 0 26 -4 33 -20 33 -10 0 -24 9 -30 20 -13 25 -30 26 -30
2z"/>
<path d="M5450 7645 c0 -31 3 -35 25 -35 19 0 25 5 25 23 0 25 -17 47 -37 47
-8 0 -13 -13 -13 -35z"/>
<path d="M9716 7638 c-33 -58 -61 -136 -85 -238 -22 -93 -54 -310 -47 -317 7
-8 46 17 47 30 0 7 2 41 3 77 4 70 47 228 102 374 33 85 37 116 15 116 -6 0
-21 -19 -35 -42z"/>
<path d="M11573 7655 c-9 -25 2 -27 22 -5 17 18 17 20 1 20 -9 0 -19 -7 -23
-15z"/>
<path d="M11685 7615 c0 -55 14 -83 34 -71 16 10 13 62 -4 96 -23 44 -31 37
-30 -25z"/>
<path d="M11436 7618 c-31 -44 -12 -146 30 -162 25 -10 27 -3 10 55 -21 69
-20 85 4 109 l20 20 -24 0 c-14 0 -32 -10 -40 -22z"/>
<path d="M11260 7598 c0 -15 5 -30 10 -33 13 -8 13 25 0 45 -8 12 -10 9 -10
-12z"/>
<path d="M6702 7603 c-18 -4 -23 -10 -20 -31 4 -35 42 -43 58 -12 12 22 7 51
-7 49 -4 -1 -18 -4 -31 -6z"/>
<path d="M7920 7580 c0 -35 23 -41 40 -11 16 31 12 41 -15 41 -21 0 -25 -5
-25 -30z"/>
<path d="M4180 7564 c-16 -41 -12 -64 10 -64 25 0 44 35 36 66 -8 32 -34 31
-46 -2z"/>
<path d="M5423 7554 c-3 -8 1 -22 9 -30 12 -12 17 -12 36 6 12 12 22 25 22 30
0 17 -60 11 -67 -6z"/>
<path d="M7909 7518 c-15 -35 -5 -66 16 -48 17 14 19 38 6 59 -8 12 -12 10
-22 -11z"/>
<path d="M3003 7506 c-29 -36 -30 -95 -4 -127 l19 -24 7 25 c3 14 5 55 3 90
l-3 65 -22 -29z"/>
<path d="M6660 7476 c0 -13 6 -29 14 -35 12 -10 17 -8 25 8 18 33 13 51 -14
51 -20 0 -25 -5 -25 -24z"/>
<path d="M5416 7483 c-4 -5 1 -47 9 -70 7 -20 33 -15 40 7 9 28 -2 57 -25 63
-10 3 -21 3 -24 0z"/>
<path d="M11688 7485 c-3 -3 0 -18 7 -33 8 -15 26 -72 40 -127 14 -55 34 -111
44 -125 10 -14 47 -42 82 -62 114 -66 128 -79 180 -164 56 -93 67 -104 81 -79
9 15 12 13 29 -15 20 -32 39 -33 39 -2 0 10 -12 34 -26 55 -22 33 -29 37 -54
32 -25 -5 -31 -2 -45 25 -9 18 -62 80 -117 138 -116 124 -149 180 -156 270 -4
56 -8 65 -29 73 -40 15 -68 20 -75 14z"/>
<path d="M3534 7470 c-49 -20 -85 -100 -91 -206 -5 -78 -5 -82 18 -94 35 -19
107 -15 138 8 25 18 26 23 23 99 -3 55 1 90 11 116 15 36 15 37 -10 57 -14 11
-29 20 -34 20 -4 0 -13 2 -21 4 -7 3 -23 1 -34 -4z m61 -65 c0 -16 -7 -20 -35
-20 -29 0 -36 4 -38 23 -3 21 0 23 35 20 30 -2 38 -7 38 -23z m-42 -116 c12
-7 24 -13 25 -15 2 -1 -2 -18 -9 -38 -11 -31 -16 -35 -38 -29 -14 3 -31 10
-38 15 -14 11 -26 56 -18 68 8 13 52 12 78 -1z"/>
<path d="M4160 7445 c0 -24 5 -35 15 -35 10 0 15 11 15 35 0 24 -5 35 -15 35
-10 0 -15 -11 -15 -35z"/>
<path d="M7890 7425 c-13 -33 -13 -95 -1 -95 16 0 41 43 41 71 0 15 -7 32 -15
39 -12 10 -16 8 -25 -15z"/>
<path d="M6640 7376 c0 -31 28 -56 41 -35 5 8 9 24 9 37 0 17 -6 22 -25 22
-20 0 -25 -5 -25 -24z"/>
<path d="M4120 7364 c0 -24 19 -54 35 -54 10 0 15 11 15 35 0 31 -3 35 -25 35
-16 0 -25 -6 -25 -16z"/>
<path d="M5400 7345 c0 -31 3 -35 25 -35 19 0 25 5 25 23 0 25 -17 47 -37 47
-8 0 -13 -13 -13 -35z"/>
<path d="M3004 7342 c-18 -2 -22 -16 -37 -110 -19 -121 -22 -206 -7 -197 25
15 44 78 57 189 7 65 12 120 11 120 -2 1 -12 0 -24 -2z"/>
<path d="M4120 7255 c0 -22 5 -35 13 -35 20 0 37 22 37 47 0 18 -6 23 -25 23
-22 0 -25 -4 -25 -35z"/>
<path d="M6620 7255 c0 -51 42 -46 55 8 7 25 5 27 -24 27 -29 0 -31 -3 -31
-35z"/>
<path d="M7861 7269 c-27 -26 -23 -43 12 -47 24 -3 27 0 27 27 0 39 -12 45
-39 20z"/>
<path d="M5403 7272 c-23 -3 -28 -17 -17 -46 9 -24 33 -19 40 9 8 33 3 41 -23
37z"/>
<path d="M10070 7269 c0 -15 43 -117 64 -153 22 -37 83 -96 101 -96 9 0 -44
99 -85 160 -33 48 -80 101 -80 89z"/>
<path d="M8771 7211 c-19 -12 -2 -38 57 -89 56 -47 83 -102 62 -127 -14 -17
-105 -21 -95 -5 11 18 -16 40 -47 40 -29 0 -30 -2 -24 -32 9 -44 44 -77 88
-85 52 -8 121 27 142 71 25 54 20 75 -29 119 -44 40 -44 41 -22 51 13 7 23 23
25 39 l3 27 -73 0 c-40 0 -79 -4 -87 -9z"/>
<path d="M10840 7180 c-8 -10 -32 -38 -53 -63 -24 -29 -40 -60 -46 -90 -10
-56 0 -63 60 -42 23 9 44 13 47 10 3 -3 6 -22 6 -43 1 -30 5 -38 22 -40 16 -2
25 7 39 38 17 37 26 45 48 41 5 -1 7 2 5 6 -2 4 -16 35 -31 68 -61 137 -71
148 -97 115z m20 -100 c0 -32 -16 -48 -32 -32 -8 8 -7 20 2 41 15 36 30 32 30
-9z"/>
<path d="M4100 7170 c0 -13 7 -20 20 -20 13 0 20 7 20 20 0 13 -7 20 -20 20
-13 0 -20 -7 -20 -20z"/>
<path d="M7850 7160 c0 -32 11 -38 29 -16 14 16 4 46 -15 46 -9 0 -14 -11 -14
-30z"/>
<path d="M5380 7149 c0 -25 33 -22 38 4 2 12 -3 17 -17 17 -15 0 -21 -6 -21
-21z"/>
<path d="M6610 7135 c0 -24 5 -35 15 -35 10 0 15 11 15 35 0 24 -5 35 -15 35
-10 0 -15 -11 -15 -35z"/>
<path d="M4096 7105 c-13 -36 -7 -55 20 -55 23 0 25 3 22 32 -3 36 -31 51 -42
23z"/>
<path d="M10073 7080 c6 -48 22 -70 49 -70 18 0 19 5 14 38 -7 35 -36 72 -58
72 -7 0 -8 -16 -5 -40z"/>
<path d="M7832 7078 c2 -13 8 -23 13 -23 6 0 11 10 13 23 2 15 -2 22 -13 22
-11 0 -15 -7 -13 -22z"/>
<path d="M680 7083 c0 -21 31 -35 67 -31 25 4 51 -1 76 -14 47 -23 96 -26 108
-7 7 11 -4 18 -49 33 -66 21 -202 34 -202 19z"/>
<path d="M5360 7059 c-7 -11 -9 -24 -5 -27 9 -9 40 13 43 32 5 23 -25 20 -38
-5z"/>
<path d="M6600 7050 c-14 -26 -13 -40 5 -40 12 0 35 28 35 43 0 16 -31 13 -40
-3z"/>
<path d="M9796 7023 c-4 -23 1 -67 13 -113 19 -75 19 -75 31 -45 19 45 17 135
-5 168 -23 36 -32 34 -39 -10z"/>
<path d="M950 7030 c0 -18 5 -21 38 -18 25 2 37 8 37 18 0 10 -12 16 -37 18
-33 3 -38 0 -38 -18z"/>
<path d="M1060 7015 c0 -22 26 -35 59 -29 24 5 31 3 31 -10 0 -17 33 -22 64
-10 21 8 20 31 -1 42 -31 16 -153 22 -153 7z"/>
<path d="M2942 6970 c-17 -56 -16 -62 16 -58 22 2 29 10 36 41 8 30 7 40 -5
48 -25 16 -34 10 -47 -31z"/>
<path d="M4070 6975 c0 -31 3 -35 25 -35 18 0 25 5 25 19 0 33 -11 51 -31 51
-15 0 -19 -7 -19 -35z"/>
<path d="M7810 6991 c0 -25 29 -56 42 -43 5 5 8 20 6 33 -4 31 -48 41 -48 10z"/>
<path d="M1260 6970 c12 -22 11 -22 92 -24 97 -2 66 27 -40 37 -60 7 -62 6
-52 -13z"/>
<path d="M5330 6960 c0 -15 7 -20 25 -20 28 0 34 24 9 34 -26 10 -34 7 -34
-14z"/>
<path d="M1440 6954 c0 -18 24 -44 40 -44 15 0 20 7 20 25 0 21 -5 25 -30 25
-16 0 -30 -3 -30 -6z"/>
<path d="M1570 6922 c0 -22 18 -32 57 -32 20 0 24 4 21 23 -2 18 -10 23 -40
25 -32 3 -38 0 -38 -16z"/>
<path d="M6580 6921 c-14 -28 -13 -31 15 -31 20 0 25 5 25 25 0 30 -25 34 -40
6z"/>
<path d="M4066 6914 c-9 -8 -16 -19 -16 -24 0 -11 29 -40 41 -40 5 0 9 18 9
40 0 43 -9 49 -34 24z"/>
<path d="M7796 6923 c-2 -2 -1 -15 2 -28 3 -19 11 -25 29 -25 21 0 24 4 21 27
-2 19 -9 27 -26 28 -12 1 -24 0 -26 -2z"/>
<path d="M10020 6899 c0 -24 4 -29 25 -29 20 0 25 5 25 24 0 17 -7 25 -25 28
-22 5 -25 2 -25 -23z"/>
<path d="M1690 6899 c0 -10 50 -45 77 -53 27 -9 70 11 55 26 -12 12 -132 37
-132 27z"/>
<path d="M5330 6875 c0 -24 5 -35 15 -35 10 0 15 11 15 35 0 24 -5 35 -15 35
-10 0 -15 -11 -15 -35z"/>
<path d="M2950 6870 c-20 -20 -22 -29 -16 -85 4 -35 2 -74 -4 -89 -7 -21 -6
-34 5 -57 9 -16 19 -29 24 -29 7 0 23 271 16 278 -2 2 -13 -6 -25 -18z"/>
<path d="M1870 6855 c0 -17 21 -27 88 -42 31 -8 42 -7 42 2 0 22 -34 42 -82
49 -40 6 -48 5 -48 -9z"/>
<path d="M6576 6853 c-3 -3 -6 -18 -6 -33 0 -15 3 -30 6 -33 12 -11 44 13 44
33 0 20 -32 44 -44 33z"/>
<path d="M2054 6826 c-25 -19 -8 -37 36 -39 38 -2 48 13 25 37 -20 20 -35 20
-61 2z"/>
<path d="M4050 6796 c0 -31 14 -40 30 -21 15 18 6 45 -15 45 -9 0 -15 -9 -15
-24z"/>
<path d="M7798 6795 c-3 -14 -1 -28 3 -31 15 -9 29 6 29 32 0 32 -26 31 -32
-1z"/>
<path d="M2161 6801 c-22 -14 -3 -31 35 -31 22 0 34 5 34 14 0 23 -43 34 -69
17z"/>
<path d="M2276 6784 c-4 -11 0 -15 16 -12 12 2 23 9 26 16 6 18 -35 15 -42 -4z"/>
<path d="M5315 6779 c-9 -29 21 -62 35 -39 14 22 8 54 -12 58 -10 2 -19 -6
-23 -19z"/>
<path d="M9810 6754 c0 -48 11 -79 32 -87 10 -3 13 10 13 52 0 60 -8 81 -31
81 -10 0 -14 -13 -14 -46z"/>
<path d="M10044 6788 c-12 -18 -11 -31 3 -45 16 -17 31 -16 50 3 12 12 14 20
6 33 -13 20 -49 26 -59 9z"/>
<path d="M2385 6760 c-3 -5 -3 -14 0 -20 7 -11 77 -12 115 -1 23 6 20 8 -22
19 -57 15 -85 15 -93 2z"/>
<path d="M2562 6733 c4 -22 44 -29 63 -13 22 18 9 30 -31 30 -28 0 -35 -4 -32
-17z"/>
<path d="M4032 6718 c2 -27 8 -34 30 -36 23 -3 26 0 21 20 -14 56 -56 69 -51
16z"/>
<path d="M6550 6725 c0 -21 5 -25 30 -25 25 0 30 4 30 25 0 21 -5 25 -30 25
-25 0 -30 -4 -30 -25z"/>
<path d="M7780 6726 c0 -31 16 -42 28 -19 12 22 5 43 -14 43 -8 0 -14 -10 -14
-24z"/>
<path d="M2683 6705 c-17 -13 -16 -14 15 -15 33 0 43 13 18 23 -8 3 -22 -1
-33 -8z"/>
<path d="M4605 6716 c-5 -3 -22 -7 -37 -10 -21 -5 -28 -12 -28 -31 0 -26 16
-31 55 -16 26 11 45 3 45 -18 0 -9 -21 -47 -46 -84 -46 -69 -84 -147 -84 -173
0 -17 33 -18 62 -3 25 13 54 79 63 142 6 38 13 50 35 62 54 28 99 102 72 119
-11 6 -125 16 -137 12z"/>
<path d="M5310 6690 c0 -25 4 -31 18 -28 11 2 17 12 17 28 0 16 -6 26 -17 28
-14 3 -18 -3 -18 -28z"/>
<path d="M5843 6681 c-50 -49 -68 -155 -39 -225 52 -124 226 -86 226 49 0 38
-47 80 -113 101 -31 10 -57 24 -57 31 0 15 5 16 84 17 68 1 82 17 37 40 -49
26 -105 21 -138 -13z m107 -127 c15 -38 12 -90 -5 -104 -24 -20 -61 -4 -79 34
-24 50 -21 73 12 84 45 17 62 14 72 -14z"/>
<path d="M7210 6693 c-26 -10 -71 -57 -92 -97 -22 -43 -15 -56 33 -56 14 0 30
-5 37 -12 29 -29 0 -108 -40 -108 -11 0 -35 9 -52 19 -42 26 -60 15 -45 -26
12 -35 66 -63 123 -63 30 0 36 5 65 59 17 32 31 67 31 77 0 10 -18 36 -39 59
-21 22 -42 50 -46 63 -6 21 -4 22 49 22 44 0 57 4 66 19 14 27 14 28 -21 40
-34 12 -46 12 -69 4z"/>
<path d="M2390 6656 c0 -31 14 -40 30 -21 15 18 6 45 -15 45 -9 0 -15 -9 -15
-24z"/>
<path d="M6550 6625 c0 -28 4 -35 20 -35 16 0 20 7 20 35 0 28 -4 35 -20 35
-16 0 -20 -7 -20 -35z"/>
<path d="M7776 6649 c-19 -60 -12 -139 13 -139 5 0 12 27 16 61 6 49 4 64 -9
77 -13 13 -16 13 -20 1z"/>
<path d="M4025 6620 c-8 -26 -1 -35 20 -26 18 7 17 37 -2 43 -6 2 -14 -5 -18
-17z"/>
<path d="M10050 6599 c0 -36 2 -40 23 -37 39 5 31 78 -9 78 -10 0 -14 -13 -14
-41z"/>
<path d="M5282 6594 c2 -23 8 -29 27 -29 23 0 51 28 40 39 -3 3 -20 9 -38 12
-31 7 -32 6 -29 -22z"/>
<path d="M12040 6603 c0 -4 -10 -13 -22 -18 -20 -9 -22 -16 -20 -65 6 -110 44
-192 105 -225 32 -17 33 -16 108 18 41 19 85 47 97 62 22 27 22 29 4 59 -25
45 -79 67 -170 72 l-77 4 0 46 c0 29 -5 49 -12 51 -7 3 -13 1 -13 -4z m85
-212 c8 -16 20 -31 27 -34 7 -3 -1 -6 -17 -6 -37 -1 -55 14 -55 46 0 33 26 29
45 -6z"/>
<path d="M1397 6573 c-14 -23 -47 -177 -47 -220 0 -72 35 -99 59 -46 10 22 35
245 28 248 -1 0 -9 6 -19 13 -9 7 -19 9 -21 5z"/>
<path d="M2950 6551 c0 -39 9 -61 25 -61 16 0 25 22 25 61 0 24 -4 29 -25 29
-21 0 -25 -5 -25 -29z"/>
<path d="M4004 6555 c-9 -23 5 -65 21 -65 16 0 30 42 21 65 -3 8 -12 15 -21
15 -9 0 -18 -7 -21 -15z"/>
<path d="M6544 6556 c-9 -23 0 -79 13 -84 18 -5 37 42 29 72 -7 28 -33 35 -42
12z"/>
<path d="M12620 6557 c0 -27 -40 -66 -76 -73 -20 -4 -72 1 -122 11 -49 9 -101
15 -118 13 -25 -3 -19 -7 51 -37 44 -18 105 -36 135 -38 l55 -5 53 56 c30 31
52 62 50 68 -6 18 -28 22 -28 5z"/>
<path d="M9482 6517 c-7 -18 -12 -36 -12 -40 0 -12 35 -8 55 7 17 12 18 18 7
40 -16 35 -36 33 -50 -7z"/>
<path d="M1585 6509 c15 -28 15 -35 1 -76 -9 -26 -15 -47 -13 -47 46 -15 58
-59 27 -99 -26 -32 -48 -34 -83 -7 -31 24 -62 27 -53 4 3 -9 6 -20 6 -25 0 -4
14 -16 31 -24 54 -29 156 5 180 59 10 20 7 33 -15 77 -26 52 -27 87 -3 117 5
7 8 14 6 16 -13 11 -70 36 -84 36 -14 0 -14 -3 0 -31z"/>
<path d="M5273 6485 c-8 -26 -8 -37 2 -45 31 -25 71 33 45 65 -20 24 -36 17
-47 -20z"/>
<path d="M2356 6468 c-27 -38 -16 -68 25 -68 12 0 12 77 0 85 -5 3 -17 -5 -25
-17z"/>
<path d="M7740 6473 c0 -11 6 -28 14 -39 17 -23 34 -11 38 26 3 21 -2 26 -24
28 -22 3 -28 -1 -28 -15z"/>
<path d="M2990 6445 c-14 -37 -12 -55 6 -62 26 -10 50 22 38 54 -12 36 -32 40
-44 8z"/>
<path d="M11490 6436 c0 -26 4 -36 15 -36 33 0 30 57 -3 68 -8 2 -12 -9 -12
-32z"/>
<path d="M11590 6461 c0 -21 13 -41 26 -41 21 0 17 28 -6 40 -12 6 -20 7 -20
1z"/>
<path d="M3989 6423 c-5 -14 -13 -52 -18 -85 -6 -45 -5 -58 5 -58 32 0 63 92
50 144 -8 33 -24 33 -37 -1z"/>
<path d="M6520 6410 c0 -18 7 -33 19 -39 24 -13 31 -5 31 36 0 29 -3 33 -25
33 -21 0 -25 -5 -25 -30z"/>
<path d="M11877 6433 c-21 -20 1 -73 30 -73 18 0 16 45 -3 64 -18 18 -18 18
-27 9z"/>
<path d="M7745 6328 c0 -35 -4 -98 -8 -140 -10 -86 0 -101 30 -45 12 22 18 55
18 107 0 69 -17 140 -34 140 -4 0 -7 -28 -6 -62z"/>
<path d="M5278 6345 c3 -21 10 -35 18 -35 9 0 14 12 14 35 0 27 -4 35 -18 35
-15 0 -17 -6 -14 -35z"/>
<path d="M11235 6360 c-4 -6 14 -10 47 -9 42 1 48 3 28 9 -36 12 -68 12 -75 0z"/>
<path d="M2316 6338 c-11 -42 -8 -50 17 -43 36 12 42 23 22 45 -23 26 -31 25
-39 -2z"/>
<path d="M3027 6353 c-13 -12 -7 -19 29 -32 43 -15 64 -3 39 23 -17 16 -56 22
-68 9z"/>
<path d="M9443 6345 c4 -11 13 -79 21 -151 8 -72 22 -148 31 -170 16 -38 15
-39 -8 -56 l-23 -17 47 -100 c28 -57 57 -105 69 -111 32 -17 35 -5 7 32 -30
40 -62 103 -71 141 -6 26 -5 27 19 21 l25 -6 -14 40 c-8 23 -19 97 -25 166
-10 127 -28 184 -67 217 -15 12 -16 12 -11 -6z"/>
<path d="M10306 6308 c43 -69 114 -148 177 -197 l59 -46 -7 -67 c-4 -41 -2
-68 3 -68 20 0 33 31 43 97 5 37 14 83 20 101 9 27 8 37 -5 51 -9 10 -16 23
-16 29 0 7 -17 12 -44 12 -45 0 -57 7 -176 98 -24 17 -51 32 -62 32 -17 0 -16
-4 8 -42z"/>
<path d="M6520 6307 c0 -25 17 -47 37 -47 8 0 13 13 13 35 0 31 -3 35 -25 35
-19 0 -25 -5 -25 -23z"/>
<path d="M3114 6295 c-4 -9 -5 -17 -3 -18 127 -83 154 -93 165 -62 10 24 -16
45 -55 45 -28 0 -38 5 -46 23 -12 27 -52 35 -61 12z"/>
<path d="M10255 6270 c14 -47 47 -105 78 -137 38 -40 56 -43 29 -5 -11 15 -31
50 -45 77 -13 28 -35 59 -47 70 l-23 20 8 -25z"/>
<path d="M5260 6225 c0 -38 4 -55 13 -55 24 0 37 24 37 67 0 39 -2 43 -25 43
-24 0 -25 -3 -25 -55z"/>
<path d="M2300 6225 c0 -39 22 -48 40 -16 17 33 12 51 -15 51 -22 0 -25 -4
-25 -35z"/>
<path d="M3957 6253 c-11 -20 -15 -59 -8 -71 10 -17 39 -5 46 19 10 31 -24 77
-38 52z"/>
<path d="M6520 6190 c0 -37 2 -39 23 -31 15 6 23 18 25 40 3 27 0 31 -22 31
-24 0 -26 -4 -26 -40z"/>
<path d="M3304 6198 c-10 -15 34 -50 59 -46 27 4 32 22 12 42 -19 19 -61 21
-71 4z"/>
<path d="M7895 6198 c-11 -28 -1 -53 23 -56 28 -4 29 17 3 49 -17 21 -20 22
-26 7z"/>
<path d="M10211 6143 c11 -27 32 -60 47 -75 25 -27 62 -38 62 -18 0 6 -4 10
-9 10 -5 0 -19 21 -32 48 -28 59 -47 82 -70 82 -17 0 -17 -2 2 -47z"/>
<path d="M3440 6158 c0 -23 22 -38 57 -38 54 0 37 32 -24 45 -25 5 -33 3 -33
-7z"/>
<path d="M11092 6156 c-32 -10 -38 -28 -10 -34 17 -3 66 33 52 39 -5 3 -24 0
-42 -5z"/>
<path d="M3943 6149 c-18 -18 -17 -99 1 -99 33 0 52 61 28 91 -14 16 -19 18
-29 8z"/>
<path d="M5240 6135 c0 -14 6 -28 14 -31 22 -8 56 14 56 36 0 16 -7 20 -35 20
-31 0 -35 -3 -35 -25z"/>
<path d="M2286 6119 c-6 -30 7 -69 23 -69 9 0 22 80 15 92 -12 18 -32 6 -38
-23z"/>
<path d="M3563 6133 c-38 -15 23 -68 70 -61 36 5 31 32 -8 51 -37 18 -42 19
-62 10z"/>
<path d="M710 6106 c0 -8 7 -16 15 -20 10 -4 15 1 15 14 0 11 -7 20 -15 20 -8
0 -15 -6 -15 -14z"/>
<path d="M6520 6095 c0 -20 5 -25 25 -25 20 0 25 5 25 25 0 20 -5 25 -25 25
-20 0 -25 -5 -25 -25z"/>
<path d="M7961 6102 c-8 -15 -4 -22 20 -36 24 -14 33 -15 44 -6 22 18 19 28
-15 45 -37 19 -37 19 -49 -3z"/>
<path d="M780 6085 c0 -8 7 -15 15 -15 8 0 15 7 15 15 0 8 -7 15 -15 15 -8 0
-15 -7 -15 -15z"/>
<path d="M3708 6079 c-29 -16 -21 -31 15 -27 20 2 32 8 32 18 0 18 -24 23 -47
9z"/>
<path d="M862 6068 c-21 -21 -13 -38 17 -38 15 0 74 -14 130 -30 164 -49 222
-51 173 -7 -13 12 -37 17 -82 17 -53 0 -75 6 -131 35 -74 38 -89 41 -107 23z"/>
<path d="M3788 6059 c-30 -17 -20 -29 21 -29 46 0 61 14 32 29 -24 13 -31 13
-53 0z"/>
<path d="M5240 6041 c0 -31 22 -57 40 -46 5 3 10 22 10 41 0 30 -3 34 -25 34
-21 0 -25 -5 -25 -29z"/>
<path d="M7730 6039 c0 -30 5 -31 38 -6 9 8 8 13 -5 23 -27 20 -33 17 -33 -17z"/>
<path d="M10180 6055 c0 -30 28 -82 55 -103 37 -29 47 -28 39 6 -10 43 -34 78
-65 96 -26 15 -29 16 -29 1z"/>
<path d="M8060 6027 c0 -13 5 -28 12 -35 7 -7 22 -12 35 -12 17 0 23 6 23 23
0 13 -5 28 -12 35 -7 7 -22 12 -35 12 -17 0 -23 -6 -23 -23z"/>
<path d="M3880 6025 c0 -4 7 -19 15 -34 15 -30 40 -45 56 -35 16 10 9 53 -10
64 -21 11 -61 14 -61 5z"/>
<path d="M6502 5998 c2 -25 8 -34 26 -36 19 -3 22 1 22 32 0 32 -3 36 -26 36
-23 0 -25 -3 -22 -32z"/>
<path d="M2266 6001 c-9 -9 -16 -30 -16 -44 0 -22 5 -27 25 -27 22 0 25 4 25
39 0 47 -11 57 -34 32z"/>
<path d="M1240 5961 c47 -39 138 -54 147 -24 5 13 -43 28 -122 38 l-50 6 25
-20z"/>
<path d="M7725 5958 c-3 -13 -2 -45 3 -71 7 -45 8 -47 26 -34 18 13 18 18 7
46 -8 17 -11 42 -9 56 7 32 -19 35 -27 3z"/>
<path d="M8140 5962 c0 -24 31 -52 58 -52 31 0 34 14 11 44 -24 31 -69 36 -69
8z"/>
<path d="M9830 5913 c0 -38 9 -138 21 -223 32 -242 27 -222 49 -210 11 6 24
29 30 51 6 22 13 46 16 53 3 7 -7 18 -22 25 -25 11 -26 15 -22 68 3 32 -1 91
-8 133 -8 41 -14 92 -14 112 0 34 -19 58 -44 58 -3 0 -6 -30 -6 -67z"/>
<path d="M5240 5928 c0 -18 -5 -51 -10 -73 -7 -31 -6 -45 6 -63 9 -13 17 -22
20 -20 2 3 10 42 18 88 12 66 12 86 3 92 -25 16 -37 8 -37 -24z"/>
<path d="M1424 5935 c-10 -24 15 -45 52 -45 27 0 34 4 34 20 0 33 -75 55 -86
25z"/>
<path d="M1540 5895 c-10 -12 -8 -16 15 -25 39 -15 45 -13 45 15 0 20 -5 25
-24 25 -13 0 -29 -7 -36 -15z"/>
<path d="M3890 5894 c0 -20 18 -54 29 -54 16 0 23 52 9 61 -21 14 -38 10 -38
-7z"/>
<path d="M6500 5881 c0 -40 18 -49 30 -16 11 30 6 45 -16 45 -9 0 -14 -10 -14
-29z"/>
<path d="M10140 5896 c0 -23 20 -70 33 -78 21 -14 47 -9 47 9 0 9 -5 32 -12
50 -10 27 -17 33 -40 33 -18 0 -28 -5 -28 -14z"/>
<path d="M8274 5885 c-8 -21 14 -45 42 -45 34 0 37 16 8 39 -32 25 -43 26 -50
6z"/>
<path d="M1636 5882 c-3 -5 2 -19 10 -31 23 -32 69 -26 69 9 0 22 -5 25 -37
28 -20 2 -39 -1 -42 -6z"/>
<path d="M2252 5878 c-7 -7 -12 -25 -12 -40 0 -23 4 -28 24 -28 18 0 25 7 30
31 9 46 -13 66 -42 37z"/>
<path d="M1762 5838 c4 -27 50 -37 75 -17 13 12 13 14 -3 26 -10 7 -31 13 -47
13 -24 0 -28 -4 -25 -22z"/>
<path d="M1870 5821 c-15 -29 -13 -31 25 -31 28 0 35 4 35 19 0 17 -18 31 -40
31 -5 0 -14 -9 -20 -19z"/>
<path d="M8399 5824 c-11 -14 -9 -20 15 -41 31 -26 69 -28 74 -3 2 10 -13 25
-36 38 -36 20 -41 21 -53 6z"/>
<path d="M9466 5805 c6 -29 32 -93 109 -278 40 -96 42 -130 5 -76 -25 36 -49
59 -62 59 -5 0 -2 -10 6 -23 8 -12 26 -63 39 -113 14 -50 30 -101 36 -112 15
-29 51 -52 79 -52 23 0 23 1 -7 26 -36 30 -38 40 -10 47 l20 6 -20 20 c-24 24
-25 28 -11 68 10 26 6 40 -30 114 l-41 84 26 3 c31 4 31 7 2 46 -13 17 -43 63
-66 102 -23 40 -51 80 -62 90 -20 18 -20 18 -13 -11z"/>
<path d="M6513 5813 c-18 -7 -16 -43 2 -43 18 0 31 28 19 39 -5 5 -15 6 -21 4z"/>
<path d="M1993 5800 c-38 -16 -27 -31 20 -28 29 2 42 8 42 18 0 18 -31 23 -62
10z"/>
<path d="M3877 5798 c-6 -17 10 -58 22 -58 15 0 33 39 27 56 -7 17 -42 19 -49
2z"/>
<path d="M7732 5788 c2 -12 9 -23 16 -26 18 -6 15 35 -4 42 -11 4 -15 0 -12
-16z"/>
<path d="M10075 5758 c7 -35 46 -78 71 -78 17 0 17 4 4 52 -11 38 -34 58 -65
58 -13 0 -15 -6 -10 -32z"/>
<path d="M2110 5761 c0 -25 41 -29 60 -6 10 12 9 15 -8 15 -11 0 -27 3 -36 6
-12 4 -16 0 -16 -15z"/>
<path d="M8518 5753 c-10 -2 -18 -7 -18 -9 0 -13 63 -64 79 -64 30 0 33 29 6
56 -24 24 -33 26 -67 17z"/>
<path d="M2210 5721 c0 -50 30 -49 49 2 10 26 9 27 -19 27 -27 0 -30 -3 -30
-29z"/>
<path d="M5231 5732 c-17 -31 -14 -54 7 -50 19 4 29 45 14 60 -7 7 -14 3 -21
-10z"/>
<path d="M7724 5706 c-4 -10 -2 -22 4 -28 8 -8 13 -7 18 6 4 10 2 22 -4 28 -8
8 -13 7 -18 -6z"/>
<path d="M3880 5665 c0 -24 5 -35 15 -35 10 0 15 11 15 35 0 24 -5 35 -15 35
-10 0 -15 -11 -15 -35z"/>
<path d="M8652 5658 c2 -18 10 -24 36 -26 30 -3 33 -1 30 20 -2 18 -10 24 -36
26 -30 3 -33 1 -30 -20z"/>
<path d="M2200 5615 c0 -24 5 -35 15 -35 10 0 15 11 15 35 0 24 -5 35 -15 35
-10 0 -15 -11 -15 -35z"/>
<path d="M5220 5615 c0 -28 4 -35 20 -35 16 0 20 7 20 35 0 28 -4 35 -20 35
-16 0 -20 -7 -20 -35z"/>
<path d="M8762 5613 c3 -19 66 -56 79 -48 4 3 2 19 -4 35 -10 25 -17 30 -45
30 -26 0 -33 -4 -30 -17z"/>
<path d="M2901 5493 c-7 -65 -15 -130 -18 -145 -5 -25 -2 -28 20 -28 60 0 76
51 69 228 -2 61 -2 62 -30 62 l-29 0 -12 -117z"/>
<path d="M3098 5593 c-24 -12 -25 -16 -15 -43 9 -24 7 -47 -11 -120 -23 -96
-21 -119 17 -139 15 -8 20 -5 29 14 30 66 42 271 17 293 -6 5 -22 3 -37 -5z"/>
<path d="M6500 5566 c0 -30 4 -36 21 -36 17 0 20 5 17 32 -2 22 -9 34 -20 36
-15 3 -18 -4 -18 -32z"/>
<path d="M10050 5570 c0 -25 4 -31 18 -28 11 2 17 12 17 28 0 16 -6 26 -17 28
-14 3 -18 -3 -18 -28z"/>
<path d="M3865 5560 c-8 -26 1 -40 26 -40 23 0 25 23 3 44 -20 20 -21 20 -29
-4z"/>
<path d="M1238 5520 c3 -24 -6 -71 -23 -124 -27 -85 -27 -126 1 -126 8 0 23
14 34 32 18 31 24 65 34 196 4 62 4 62 -23 62 -25 0 -26 -2 -23 -40z"/>
<path d="M2194 5544 c-4 -11 -9 -22 -11 -26 -2 -5 5 -8 15 -8 25 0 35 25 17
40 -12 10 -16 8 -21 -6z"/>
<path d="M5211 5504 c-10 -27 -10 -39 -2 -47 28 -28 67 37 41 69 -18 21 -25
18 -39 -22z"/>
<path d="M8906 5531 c-8 -13 51 -61 75 -61 27 0 25 35 -3 54 -25 18 -64 21
-72 7z"/>
<path d="M7710 5495 c0 -28 4 -35 19 -35 20 0 31 18 31 51 0 14 -7 19 -25 19
-22 0 -25 -4 -25 -35z"/>
<path d="M9946 5452 c-28 -102 -18 -200 27 -249 32 -35 37 -27 16 26 -16 43
-16 51 -4 61 12 10 14 27 9 80 -5 45 -3 69 5 74 12 8 -12 66 -28 66 -5 0 -16
-26 -25 -58z"/>
<path d="M1449 5475 c-31 -17 -75 -72 -95 -120 -13 -32 -13 -35 4 -35 34 0 61
-29 64 -68 4 -49 28 -46 90 16 49 47 52 57 15 57 -29 0 -34 39 -13 90 24 57
21 75 -11 75 -16 -1 -40 -7 -54 -15z m13 -94 c-4 -30 -11 -56 -17 -57 -5 -2
-21 5 -34 15 -22 17 -23 20 -10 47 11 23 57 59 65 51 1 -1 -1 -26 -4 -56z"/>
<path d="M3860 5451 c0 -26 16 -35 24 -15 10 25 7 34 -9 34 -8 0 -15 -9 -15
-19z"/>
<path d="M6500 5434 c0 -28 3 -35 18 -32 11 2 18 14 20 36 3 27 0 32 -17 32
-17 0 -21 -6 -21 -36z"/>
<path d="M9040 5452 c0 -25 31 -52 58 -52 26 0 30 31 6 54 -22 23 -64 21 -64
-2z"/>
<path d="M2162 5428 c0 -18 -5 -51 -10 -73 -9 -42 -1 -85 17 -85 15 0 20 12
32 90 10 67 10 75 -7 87 -27 19 -32 16 -32 -19z"/>
<path d="M5216 5404 c-13 -35 -7 -54 19 -54 27 0 32 18 15 51 -13 23 -26 24
-34 3z"/>
<path d="M7710 5396 c0 -13 6 -29 14 -35 12 -10 17 -8 25 8 18 33 13 51 -14
51 -20 0 -25 -5 -25 -24z"/>
<path d="M9860 5351 c0 -65 11 -98 23 -67 15 38 19 107 7 121 -23 28 -30 15
-30 -54z"/>
<path d="M9157 5393 c-15 -14 -5 -30 28 -46 20 -9 42 -17 50 -17 20 0 19 34
-1 54 -15 16 -65 22 -77 9z"/>
<path d="M3840 5360 c0 -31 17 -39 38 -18 22 22 14 48 -13 48 -21 0 -25 -5
-25 -30z"/>
<path d="M6492 5317 c-16 -44 -15 -57 2 -57 23 0 46 39 37 63 -12 33 -26 30
-39 -6z"/>
<path d="M9291 5316 c-10 -12 -7 -18 18 -30 38 -20 67 -20 75 -1 3 10 -5 20
-24 30 -36 19 -54 19 -69 1z"/>
<path d="M7710 5295 c0 -28 3 -29 31 -15 28 15 24 40 -6 40 -20 0 -25 -5 -25
-25z"/>
<path d="M5210 5265 c0 -24 5 -35 15 -35 10 0 15 11 15 35 0 24 -5 35 -15 35
-10 0 -15 -11 -15 -35z"/>
<path d="M3840 5256 c0 -31 14 -40 30 -21 15 18 6 45 -15 45 -9 0 -15 -9 -15
-24z"/>
<path d="M9413 5245 c-7 -21 12 -35 50 -35 24 0 28 4 25 23 -4 28 -64 38 -75
12z"/>
<path d="M7730 5215 c0 -24 5 -35 15 -35 10 0 15 11 15 35 0 24 -5 35 -15 35
-10 0 -15 -11 -15 -35z"/>
<path d="M2120 5211 c-14 -28 -13 -31 15 -31 20 0 25 5 25 25 0 30 -25 34 -40
6z"/>
<path d="M2200 5205 c0 -20 5 -25 25 -25 20 0 25 5 25 25 0 20 -5 25 -25 25
-20 0 -25 -5 -25 -25z"/>
<path d="M6500 5191 c0 -49 16 -62 30 -25 14 35 9 58 -13 62 -14 3 -17 -4 -17
-37z"/>
<path d="M9536 5194 c-9 -22 21 -54 51 -54 30 0 31 33 1 54 -29 20 -44 20 -52
0z"/>
<path d="M3824 5166 c-6 -17 12 -56 27 -56 12 0 31 49 23 61 -8 14 -44 11 -50
-5z"/>
<path d="M5212 5159 c1 -12 9 -24 16 -27 9 -3 13 3 10 19 -1 12 -9 24 -16 27
-9 3 -13 -3 -10 -19z"/>
<path d="M2252 5108 c2 -25 8 -34 26 -36 19 -3 22 1 22 32 0 32 -3 36 -26 36
-23 0 -25 -3 -22 -32z"/>
<path d="M7730 5105 c0 -51 29 -42 43 13 4 18 1 22 -19 22 -21 0 -24 -5 -24
-35z"/>
<path d="M9662 5118 c-9 -9 -7 -17 10 -35 28 -30 54 -29 62 2 4 14 4 30 1 35
-9 14 -59 12 -73 -2z"/>
<path d="M2090 5085 c0 -19 3 -35 8 -35 16 0 31 17 37 43 6 24 5 27 -19 27
-23 0 -26 -4 -26 -35z"/>
<path d="M3820 5035 c0 -28 4 -35 20 -35 16 0 20 7 20 35 0 28 -4 35 -20 35
-16 0 -20 -7 -20 -35z"/>
<path d="M6500 5045 c0 -20 4 -26 18 -23 9 2 17 12 17 23 0 11 -8 21 -17 23
-14 3 -18 -3 -18 -23z"/>
<path d="M2300 5031 c0 -25 26 -51 51 -51 26 0 26 46 0 60 -30 16 -51 12 -51
-9z"/>
<path d="M5212 5019 c1 -12 9 -24 16 -27 9 -3 13 3 10 19 -1 12 -9 24 -16 27
-9 3 -13 -3 -10 -19z"/>
<path d="M7730 5005 c0 -24 5 -35 15 -35 10 0 15 11 15 35 0 24 -5 35 -15 35
-10 0 -15 -11 -15 -35z"/>
<path d="M731 5021 c-26 -16 45 -42 134 -48 77 -5 85 -8 104 -34 23 -32 43
-30 59 5 10 23 8 24 -62 45 -68 20 -173 41 -206 41 -8 0 -21 -4 -29 -9z"/>
<path d="M4170 4984 c0 -11 9 -14 37 -12 52 4 56 28 4 28 -30 0 -41 -4 -41
-16z"/>
<path d="M4290 4985 c-11 -13 -8 -15 18 -15 34 0 50 15 26 24 -23 9 -30 8 -44
-9z"/>
<path d="M2066 4958 c-17 -39 -13 -48 20 -48 23 0 25 3 22 37 -4 48 -25 53
-42 11z"/>
<path d="M4394 4979 c-8 -14 14 -29 44 -29 24 0 28 10 10 28 -15 15 -45 16
-54 1z"/>
<path d="M4525 4966 c-39 -18 -23 -23 87 -29 69 -4 85 -2 81 8 -12 33 -114 45
-168 21z"/>
<path d="M2370 4945 c0 -34 41 -61 70 -45 21 11 21 12 3 33 -38 46 -73 52 -73
12z"/>
<path d="M3810 4940 c0 -34 19 -40 37 -11 10 16 8 20 -13 30 -22 10 -24 9 -24
-19z"/>
<path d="M6484 4956 c-10 -26 4 -48 28 -44 17 2 23 10 23 28 0 18 -6 26 -23
28 -13 2 -25 -3 -28 -12z"/>
<path d="M1064 4946 c-15 -40 56 -62 80 -24 13 22 7 27 -38 35 -27 4 -37 2
-42 -11z"/>
<path d="M4730 4953 c0 -17 17 -32 43 -38 23 -6 27 -4 27 13 0 11 -7 23 -16
26 -22 8 -54 8 -54 -1z"/>
<path d="M4840 4929 c0 -17 5 -20 32 -17 22 2 34 9 36 21 3 14 -4 17 -32 17
-30 0 -36 -4 -36 -21z"/>
<path d="M7732 4921 c-12 -34 -8 -41 25 -41 21 0 24 4 21 32 -4 44 -32 49 -46
9z"/>
<path d="M4960 4930 c-21 -13 -7 -22 43 -27 46 -6 73 11 46 28 -18 11 -70 11
-89 -1z"/>
<path d="M1160 4922 c0 -5 6 -16 13 -26 18 -24 51 -17 55 12 3 19 -1 22 -32
22 -20 0 -36 -4 -36 -8z"/>
<path d="M5136 4915 c-4 -10 1 -15 14 -15 11 0 20 7 20 15 0 8 -6 15 -14 15
-8 0 -16 -7 -20 -15z"/>
<path d="M5216 4911 c-6 -8 7 -11 110 -27 57 -9 65 11 9 25 -53 13 -112 14
-119 2z"/>
<path d="M1292 4894 c4 -20 34 -41 45 -31 10 11 -11 41 -31 45 -12 3 -17 -2
-14 -14z"/>
<path d="M5420 4880 c0 -15 7 -20 25 -20 27 0 32 9 13 28 -18 18 -38 14 -38
-8z"/>
<path d="M5528 4889 c-29 -16 -21 -31 15 -27 20 2 32 8 32 18 0 18 -24 23 -47
9z"/>
<path d="M1392 4863 c2 -10 13 -19 26 -21 24 -4 29 7 10 26 -18 18 -40 15 -36
-5z"/>
<path d="M2462 4858 c2 -18 10 -24 36 -26 49 -5 38 26 -16 43 -21 6 -23 4 -20
-17z"/>
<path d="M1480 4846 c0 -11 9 -16 26 -16 31 0 28 23 -4 28 -15 2 -22 -2 -22
-12z"/>
<path d="M2045 4839 c-9 -28 8 -45 25 -25 13 17 7 46 -9 46 -5 0 -13 -9 -16
-21z"/>
<path d="M3802 4827 c-15 -43 -15 -57 1 -57 24 0 47 25 53 58 6 29 4 32 -18
32 -18 0 -27 -8 -36 -33z"/>
<path d="M5930 4851 c0 -11 40 -22 52 -15 5 3 6 10 3 15 -8 12 -55 12 -55 0z"/>
<path d="M6050 4845 c0 -10 11 -15 35 -15 24 0 35 5 35 15 0 10 -11 15 -35 15
-24 0 -35 -5 -35 -15z"/>
<path d="M7713 4824 c-29 -45 -29 -54 1 -54 23 0 24 -3 19 -36 -6 -34 -5 -36
15 -25 28 15 36 128 10 142 -22 12 -20 13 -45 -27z"/>
<path d="M6166 4841 c-7 -11 14 -20 32 -14 6 3 12 9 12 14 0 12 -37 12 -44 0z"/>
<path d="M6264 4839 c-3 -6 0 -15 7 -20 22 -14 59 -11 59 5 0 24 -53 36 -66
15z"/>
<path d="M1582 4828 c3 -7 15 -15 27 -16 16 -3 22 1 19 10 -3 7 -15 15 -27 16
-16 3 -22 -1 -19 -10z"/>
<path d="M5425 4820 c-8 -26 -1 -35 20 -26 18 7 17 37 -2 43 -6 2 -14 -5 -18
-17z"/>
<path d="M6360 4825 c0 -8 9 -15 20 -15 11 0 20 7 20 15 0 8 -9 15 -20 15 -11
0 -20 -7 -20 -15z"/>
<path d="M6430 4836 c0 -12 84 -46 112 -46 31 0 58 9 58 20 0 4 -21 10 -47 14
-27 3 -65 9 -85 12 -21 3 -38 3 -38 0z"/>
<path d="M6743 4814 c-16 -12 -16 -15 -3 -24 27 -18 70 -5 70 21 0 14 -50 16
-67 3z"/>
<path d="M6655 4806 c-19 -14 -19 -15 -1 -22 20 -8 52 7 49 22 -3 15 -27 15
-48 0z"/>
<path d="M7193 4809 c-18 -5 -35 -13 -38 -18 -10 -17 16 -23 47 -10 25 10 34
10 59 -5 35 -20 59 -15 59 13 0 31 -57 40 -127 20z"/>
<path d="M1700 4800 c-12 -8 -12 -10 3 -16 22 -8 50 3 42 16 -8 12 -25 13 -45
0z"/>
<path d="M2510 4781 c0 -34 26 -69 55 -73 16 -2 21 3 23 28 2 25 -3 37 -24 53
-37 29 -54 27 -54 -8z"/>
<path d="M6832 4793 c4 -22 44 -29 63 -13 22 18 9 30 -31 30 -28 0 -35 -4 -32
-17z"/>
<path d="M6956 4795 c-7 -18 16 -30 40 -21 13 5 14 9 4 21 -16 19 -36 19 -44
0z"/>
<path d="M7030 4794 c0 -11 9 -14 37 -12 52 4 56 28 4 28 -30 0 -41 -4 -41
-16z"/>
<path d="M7350 4799 c0 -9 53 -27 105 -34 43 -7 182 18 199 35 8 8 -36 10
-147 8 -86 -1 -157 -5 -157 -9z"/>
<path d="M3779 4724 c-16 -20 0 -49 27 -49 14 0 20 8 22 33 3 26 0 32 -16 32
-11 0 -25 -7 -33 -16z"/>
<path d="M5430 4731 c0 -5 3 -17 6 -25 5 -13 10 -14 20 -6 7 7 10 18 7 26 -6
15 -33 20 -33 5z"/>
<path d="M8591 4714 c-12 -15 -21 -40 -21 -56 l0 -30 36 21 c41 25 70 27 78 6
10 -27 -10 -59 -78 -122 -63 -57 -67 -64 -64 -100 l3 -38 74 -3 c80 -3 125 14
119 46 -2 13 -18 18 -72 22 l-68 5 21 27 c12 15 44 39 71 54 80 44 89 106 24
164 -46 40 -94 41 -123 4z"/>
<path d="M1992 4658 c4 -41 30 -48 46 -13 18 39 15 45 -19 45 -28 0 -30 -2
-27 -32z"/>
<path d="M2571 4683 c1 -29 93 -163 129 -191 23 -18 44 -31 46 -29 4 4 -58
121 -90 170 -23 34 -87 71 -85 50z"/>
<path d="M7746 4668 c-19 -26 -21 -54 -4 -64 14 -9 38 23 38 52 0 33 -16 38
-34 12z"/>
<path d="M5442 4645 c-18 -39 -15 -45 23 -45 19 0 35 2 35 3 0 11 -33 67 -39
67 -4 0 -13 -11 -19 -25z"/>
<path d="M3770 4616 c0 -25 12 -46 25 -46 7 0 16 7 19 16 12 31 6 44 -19 44
-15 0 -25 -6 -25 -14z"/>
<path d="M1980 4574 c-13 -32 -13 -37 2 -52 9 -9 17 -7 35 10 28 26 29 44 4
58 -28 14 -30 13 -41 -16z"/>
<path d="M5456 4538 c-11 -42 -7 -48 29 -48 38 0 40 5 25 44 -12 33 -45 35
-54 4z"/>
<path d="M7748 4535 c-17 -37 3 -54 31 -26 27 27 27 51 1 51 -12 0 -25 -10
-32 -25z"/>
<path d="M3757 4543 c-4 -3 -7 -24 -7 -45 0 -34 3 -38 25 -38 37 0 55 42 30
70 -18 20 -36 25 -48 13z"/>
<path d="M1222 4407 c-7 -40 -21 -102 -32 -138 -27 -87 -27 -89 20 -89 l40 0
0 60 c0 36 10 90 25 137 23 72 23 79 8 91 -37 27 -49 15 -61 -61z"/>
<path d="M1950 4456 c0 -31 28 -56 41 -35 5 8 9 24 9 37 0 17 -6 22 -25 22
-20 0 -25 -5 -25 -24z"/>
<path d="M5480 4445 c-10 -12 -8 -18 11 -34 22 -18 25 -19 37 -4 6 9 12 25 12
35 0 23 -42 25 -60 3z"/>
<path d="M7762 4440 c-23 -37 -10 -70 28 -70 13 0 21 62 9 76 -15 19 -22 18
-37 -6z"/>
<path d="M1449 4417 c-79 -53 -112 -189 -58 -243 18 -18 41 -28 72 -31 46 -5
46 -5 76 43 32 49 40 97 20 110 -6 4 -32 12 -58 19 -78 20 -66 75 18 75 l46 1
-28 24 c-35 31 -45 31 -88 2z m56 -167 l0 -45 -42 -3 c-24 -2 -43 0 -43 5 0 4
-3 18 -6 30 -8 30 29 65 64 61 25 -3 27 -7 27 -48z"/>
<path d="M3760 4414 c-15 -39 -13 -44 20 -44 32 0 38 16 20 51 -15 26 -29 24
-40 -7z"/>
<path d="M2752 4403 c8 -10 35 -43 61 -74 43 -52 135 -115 157 -107 14 4 -108
148 -149 175 -19 13 -45 23 -59 23 -23 0 -24 -2 -10 -17z"/>
<path d="M2217 4353 c-29 -74 -52 -251 -35 -269 12 -11 30 8 49 52 19 42 42
216 32 241 -10 24 -31 13 -46 -24z"/>
<path d="M4551 4277 c-12 -103 -11 -117 4 -153 l17 -39 19 40 c20 46 39 148
39 218 0 47 0 47 -33 47 l-33 0 -13 -113z"/>
<path d="M6425 4356 c-22 -22 -45 -81 -45 -118 0 -22 30 -38 69 -38 46 0 81
-17 81 -40 0 -23 -26 -32 -85 -28 -31 2 -40 -1 -43 -15 -2 -10 4 -27 14 -38
21 -24 109 -26 140 -4 30 20 54 76 54 122 0 54 -44 137 -84 163 -44 26 -72 25
-101 -4z m121 -71 c3 -20 4 -39 1 -42 -3 -3 -26 -8 -52 -10 l-45 -6 0 47 0 46
45 0 c43 0 44 -1 51 -35z"/>
<path d="M9796 4330 c10 -108 -38 -280 -102 -367 -15 -21 -15 -23 0 -23 25 0
102 76 126 124 48 100 46 235 -5 294 l-24 27 5 -55z"/>
<path d="M1930 4351 c0 -11 7 -27 17 -36 15 -16 17 -15 29 7 21 36 17 48 -16
48 -23 0 -30 -5 -30 -19z"/>
<path d="M4812 4363 c-13 -3 -38 -20 -57 -39 -83 -82 -61 -234 33 -234 74 0
128 59 147 161 8 46 -15 86 -62 105 -18 8 -34 13 -35 13 -2 -1 -13 -4 -26 -6z
m42 -49 c12 -5 16 -21 16 -66 0 -49 -4 -63 -24 -83 -45 -45 -105 1 -91 71 11
59 56 95 99 78z"/>
<path d="M5500 4337 c0 -7 6 -22 14 -33 16 -21 29 -14 41 24 6 19 3 22 -24 22
-19 0 -31 -5 -31 -13z"/>
<path d="M2428 4322 c-26 -15 -58 -66 -58 -91 0 -6 9 -11 20 -11 11 0 27 -11
35 -24 15 -23 15 -27 -7 -60 -31 -49 -45 -51 -84 -16 -42 36 -64 39 -64 6 0
-58 69 -98 133 -76 85 27 126 149 61 179 -15 6 -24 19 -24 32 0 20 4 21 45 16
38 -6 46 -4 56 14 12 23 12 22 -18 38 -30 16 -63 13 -95 -7z"/>
<path d="M3754 4327 c-3 -9 -4 -28 -2 -44 2 -22 8 -28 28 -28 23 0 25 4 25 40
0 34 -3 40 -23 43 -13 2 -24 -3 -28 -11z"/>
<path d="M7760 4305 c0 -31 3 -35 25 -35 19 0 25 5 25 23 0 25 -17 47 -37 47
-8 0 -13 -13 -13 -35z"/>
<path d="M1920 4240 c0 -21 4 -30 13 -27 6 2 12 14 12 27 0 13 -6 25 -12 28
-9 2 -13 -7 -13 -28z"/>
<path d="M5540 4225 c0 -17 5 -25 13 -22 6 2 12 12 12 22 0 10 -6 20 -12 23
-8 2 -13 -6 -13 -23z"/>
<path d="M7765 4220 c-8 -37 1 -66 23 -75 23 -9 45 23 37 55 -14 55 -50 67
-60 20z"/>
<path d="M3750 4165 c0 -28 4 -35 20 -35 22 0 44 34 36 56 -3 8 -17 14 -31 14
-22 0 -25 -4 -25 -35z"/>
<path d="M5544 4158 c3 -13 6 -29 6 -35 0 -19 38 -16 49 4 14 25 -5 53 -36 53
-21 0 -24 -3 -19 -22z"/>
<path d="M1900 4115 c0 -49 1 -50 31 -35 13 8 19 21 19 45 0 31 -3 35 -25 35
-23 0 -25 -4 -25 -45z"/>
<path d="M3540 4142 c0 -11 -3 -28 -6 -37 -5 -13 -2 -16 17 -13 19 2 24 9 24
33 0 20 -5 31 -17 33 -12 2 -18 -3 -18 -16z"/>
<path d="M3761 4088 c-12 -31 5 -60 32 -56 40 5 30 78 -10 78 -7 0 -17 -10
-22 -22z"/>
<path d="M7800 4075 c0 -24 5 -35 15 -35 10 0 15 11 15 35 0 24 -5 35 -15 35
-10 0 -15 -11 -15 -35z"/>
<path d="M5577 4073 c-4 -3 -7 -19 -7 -35 0 -39 27 -48 52 -19 24 30 23 36 -7
49 -30 14 -30 14 -38 5z"/>
<path d="M1872 4007 c-7 -18 -12 -39 -12 -45 0 -24 39 -11 64 21 24 29 24 33
9 45 -28 21 -48 14 -61 -21z"/>
<path d="M7795 3968 c9 -42 13 -48 31 -48 11 0 14 9 12 38 -2 30 -7 38 -26 40
-22 3 -23 1 -17 -30z"/>
<path d="M3827 3983 c-14 -13 -6 -33 13 -33 13 0 20 7 20 20 0 19 -20 27 -33
13z"/>
<path d="M5617 3984 c-12 -12 -8 -61 7 -73 19 -16 38 10 34 46 -3 27 -26 42
-41 27z"/>
<path d="M3657 3945 c-3 -20 -22 -58 -42 -85 -36 -49 -36 -50 -13 -50 54 0
105 95 82 154 -10 26 -21 18 -27 -19z"/>
<path d="M1867 3934 c-4 -4 -7 -29 -7 -56 0 -42 3 -48 20 -48 31 0 48 45 30
78 -16 27 -32 37 -43 26z"/>
<path d="M3849 3929 c-24 -9 -26 -14 -22 -52 6 -51 -17 -84 -85 -127 l-46 -29
29 -6 c53 -12 57 -15 52 -35 -6 -23 -1 -24 58 -9 43 11 84 43 72 56 -4 3 -18
1 -32 -5 -32 -15 -65 -15 -65 -2 0 6 16 36 36 67 33 52 64 122 64 144 0 11
-27 10 -61 -2z"/>
<path d="M5637 3893 c-11 -11 -8 -51 5 -59 13 -8 38 22 38 48 0 18 -29 25 -43
11z"/>
<path d="M7820 3861 c-14 -27 -13 -31 8 -31 11 0 24 11 30 25 10 22 9 25 -8
25 -11 0 -24 -9 -30 -19z"/>
<path d="M3686 3844 c-9 -8 -16 -24 -16 -34 0 -16 4 -17 32 -9 32 9 48 24 48
47 0 17 -46 15 -64 -4z"/>
<path d="M1056 3821 c-11 -16 23 -33 51 -26 27 6 27 7 9 21 -22 16 -52 18 -60
5z"/>
<path d="M2244 3806 c-18 -14 -18 -15 7 -21 40 -10 73 -2 77 18 3 13 -4 17
-30 17 -19 0 -43 -6 -54 -14z"/>
<path d="M7076 3800 c-42 -201 -49 -260 -37 -316 14 -72 22 -80 60 -65 47 20
65 45 51 71 -6 12 -18 80 -26 152 -8 71 -21 142 -28 156 l-14 27 -6 -25z"/>
<path d="M1160 3802 c0 -5 6 -16 13 -26 17 -24 57 -13 57 15 0 15 -7 19 -35
19 -19 0 -35 -4 -35 -8z"/>
<path d="M1851 3774 c-15 -42 -11 -49 23 -40 30 7 47 53 25 67 -25 15 -35 10
-48 -27z"/>
<path d="M5660 3785 c0 -24 25 -45 54 -45 19 0 22 40 4 58 -7 7 -22 12 -35 12
-18 0 -23 -6 -23 -25z"/>
<path d="M1283 3793 c-30 -6 -37 -30 -11 -44 27 -15 71 4 66 28 -3 19 -19 23
-55 16z"/>
<path d="M7830 3749 c0 -36 2 -40 23 -37 39 5 31 78 -9 78 -10 0 -14 -13 -14
-41z"/>
<path d="M2338 3748 c-41 -20 -50 -38 -19 -38 23 0 79 44 65 52 -5 2 -26 -4
-46 -14z"/>
<path d="M1378 3741 c13 -11 44 -23 70 -26 26 -3 73 -9 105 -14 66 -9 71 2 14
32 -26 13 -65 21 -125 24 l-87 4 23 -20z"/>
<path d="M1678 3723 c-36 -6 -39 -40 -4 -49 41 -10 61 -1 61 26 0 26 -10 30
-57 23z"/>
<path d="M5707 3713 c-12 -12 -7 -50 8 -63 31 -26 56 9 39 54 -6 16 -35 22
-47 9z"/>
<path d="M9284 3656 c-113 -56 -144 -86 -91 -86 74 0 207 76 195 111 -7 21
-19 18 -104 -25z"/>
<path d="M1766 3675 c10 -26 40 -35 116 -35 40 0 90 -4 111 -9 20 -5 37 -5 37
-1 0 23 -143 59 -237 60 -25 0 -31 -4 -27 -15z"/>
<path d="M7835 3650 c-7 -23 10 -50 32 -50 10 0 13 9 11 32 -4 39 -33 51 -43
18z"/>
<path d="M2062 3639 c3 -26 41 -37 68 -20 20 13 4 29 -39 37 -30 6 -33 5 -29
-17z"/>
<path d="M2183 3643 c-40 -8 -22 -57 18 -51 18 2 24 9 24 27 0 26 -8 30 -42
24z"/>
<path d="M2270 3599 c0 -17 5 -20 32 -17 22 2 34 9 36 21 3 14 -4 17 -32 17
-30 0 -36 -4 -36 -21z"/>
<path d="M3890 3613 c-8 -3 -23 -13 -34 -22 -17 -15 -16 -16 30 -22 59 -7 74
-3 74 21 0 26 -33 36 -70 23z"/>
<path d="M5730 3616 c0 -20 26 -69 41 -77 25 -13 39 -4 39 26 0 43 -10 55 -46
55 -19 0 -34 -2 -34 -4z"/>
<path d="M7850 3540 c0 -32 11 -38 29 -16 14 16 4 46 -15 46 -9 0 -14 -11 -14
-30z"/>
<path d="M3950 3533 c0 -21 56 -29 77 -12 20 18 5 29 -38 29 -30 0 -39 -4 -39
-17z"/>
<path d="M5804 3511 c-11 -11 -2 -41 15 -51 37 -19 51 -12 51 24 0 31 -2 33
-31 32 -17 -1 -32 -3 -35 -5z"/>
<path d="M2239 3464 c-10 -13 -10 -17 2 -25 38 -24 77 -1 47 29 -16 16 -33 15
-49 -4z"/>
<path d="M7870 3435 c0 -48 0 -48 24 -39 29 11 15 84 -16 84 -4 0 -8 -20 -8
-45z"/>
<path d="M5850 3406 c0 -28 22 -49 47 -44 25 5 29 39 7 55 -29 21 -54 16 -54
-11z"/>
<path d="M7110 3365 c0 -22 33 -77 54 -91 33 -21 42 -13 27 24 -14 34 -81 89
-81 67z"/>
<path d="M7892 3344 c-16 -17 -8 -48 11 -42 15 6 22 37 10 48 -4 5 -14 2 -21
-6z"/>
<path d="M5914 3338 c-7 -11 38 -58 57 -58 16 0 21 27 9 49 -12 23 -54 29 -66
9z"/>
<path d="M1476 3323 c-3 -10 -12 -74 -20 -143 -9 -69 -18 -135 -22 -147 -7
-27 3 -29 33 -8 25 18 39 58 48 140 3 33 11 77 16 98 9 32 7 42 -7 58 -21 24
-41 24 -48 2z"/>
<path d="M1640 3302 c0 -15 76 -58 116 -66 63 -14 111 29 63 55 -30 16 -179
25 -179 11z"/>
<path d="M8822 3272 c-8 -6 -1 -12 23 -19 37 -12 48 -1 16 17 -23 12 -23 12
-39 2z"/>
<path d="M7034 3238 c6 -33 22 -56 31 -47 2 3 0 22 -6 42 -13 46 -34 50 -25 5z"/>
<path d="M8904 3259 c-8 -13 25 -24 37 -12 7 7 3 12 -10 16 -12 3 -24 1 -27
-4z"/>
<path d="M6022 3238 c5 -15 28 -18 29 -3 0 6 -7 12 -17 13 -10 3 -15 -1 -12
-10z"/>
<path d="M6936 3225 c-6 -16 26 -55 44 -55 18 0 11 49 -9 60 -26 13 -28 13
-35 -5z"/>
<path d="M7915 3225 c4 -11 10 -56 14 -100 l6 -80 57 -3 c54 -3 98 9 98 26 0
5 -15 16 -34 24 -19 9 -50 36 -69 60 -74 89 -79 95 -72 73z"/>
<path d="M1720 3191 c0 -5 -20 -35 -45 -67 -47 -60 -57 -94 -28 -94 20 0 82
65 107 114 17 32 18 39 5 47 -18 11 -39 12 -39 0z"/>
<path d="M6083 3193 c-31 -12 5 -63 45 -63 28 0 28 24 2 50 -21 21 -26 22 -47
13z"/>
<path d="M4890 3124 c0 -15 27 -50 34 -43 4 3 -2 17 -13 30 -11 13 -20 19 -21
13z"/>
<path d="M6160 3116 c-27 -33 18 -72 48 -42 13 13 14 20 6 34 -15 23 -38 26
-54 8z"/>
<path d="M6480 3113 c0 -24 26 -60 36 -50 10 10 -8 59 -23 65 -8 2 -13 -5 -13
-15z"/>
<path d="M6572 3089 c1 -13 8 -23 13 -21 15 3 12 35 -3 40 -9 3 -13 -3 -10
-19z"/>
<path d="M7600 3097 c0 -35 57 -50 81 -21 10 13 10 17 -2 25 -22 14 -79 11
-79 -4z"/>
<path d="M8122 3101 c-8 -4 -12 -17 -10 -27 3 -15 12 -19 42 -17 47 3 54 9 40
31 -12 19 -52 27 -72 13z"/>
<path d="M8224 3095 c-4 -8 -1 -22 6 -30 24 -29 70 -11 70 27 0 14 -8 18 -35
18 -23 0 -38 -6 -41 -15z"/>
<path d="M8333 3103 c-7 -2 -13 -13 -13 -24 0 -16 7 -19 45 -19 30 0 45 4 45
13 0 30 -40 45 -77 30z"/>
<path d="M7814 3089 c-9 -15 5 -26 44 -34 25 -5 32 -3 32 9 0 28 -61 48 -76
25z"/>
<path d="M5418 3039 c-18 -10 -25 -49 -9 -49 18 0 54 37 47 48 -9 14 -16 15
-38 1z"/>
<path d="M325 3022 c4 -12 0 -36 -9 -54 -11 -22 -13 -35 -6 -43 6 -7 13 -36
17 -65 3 -28 13 -59 22 -68 15 -14 16 -11 19 44 5 87 -7 160 -29 186 l-20 23
6 -23z"/>
<path d="M5495 3021 c-9 -16 3 -31 26 -31 14 0 19 6 17 17 -4 20 -33 29 -43
14z"/>
<path d="M8038 2835 c-8 -19 -8 -51 0 -128 6 -56 8 -114 5 -129 -5 -27 -4 -28
42 -28 40 0 46 2 41 17 -4 9 -11 64 -17 121 -14 148 -43 208 -71 147z"/>
<path d="M831 2219 c-23 -30 -23 -30 -5 -65 17 -32 22 -35 53 -30 18 3 35 7
37 9 12 12 -37 118 -54 116 -4 0 -18 -14 -31 -30z"/>
<path d="M7981 2201 c-7 -12 -7 -22 -2 -26 5 -3 13 4 16 16 9 28 -1 36 -14 10z"/>
<path d="M1090 2046 c0 -16 -26 -46 -41 -46 -5 0 -9 11 -9 25 0 28 -3 29 -31
15 -32 -17 -24 -54 14 -68 18 -7 40 -12 48 -12 28 1 79 59 79 89 0 6 -13 11
-30 11 -19 0 -30 -5 -30 -14z"/>
<path d="M1151 1984 c-24 -31 -26 -40 -9 -50 13 -8 58 39 58 62 0 23 -27 16
-49 -12z"/>
<path d="M8040 1979 c0 -17 -16 -59 -36 -94 l-35 -64 35 -77 c20 -42 62 -115
93 -163 54 -81 58 -84 61 -57 3 20 -10 56 -38 110 -35 67 -41 87 -37 122 4 37
1 43 -19 53 -29 13 -31 40 -8 117 16 55 14 84 -6 84 -5 0 -10 -14 -10 -31z"/>
<path d="M8210 1423 c0 -45 -3 -90 -6 -100 -7 -17 -6 -17 12 0 15 14 19 31 18
88 0 39 -6 75 -12 81 -9 9 -12 -7 -12 -69z"/>
<path d="M1261 424 l-23 -17 30 -12 c39 -17 75 -66 103 -144 24 -67 62 -121
84 -121 34 0 31 111 -6 223 -23 71 -23 71 -114 82 -38 5 -55 2 -74 -11z m160
-147 c7 -32 9 -61 5 -65 -14 -13 -36 32 -36 74 0 23 -3 51 -6 61 -6 16 -5 17
9 3 9 -9 22 -41 28 -73z"/>
<path d="M1510 218 c0 -48 17 -78 45 -78 35 0 32 23 -10 68 l-34 37 -1 -27z"/>
</g>
</svg>
