<svg xmlns="http://www.w3.org/2000/svg" viewBox="0 0 36 36"><defs><style>.cls-1{fill:#efefef;}</style></defs><title>Asset 3</title><g id="Layer_2" data-name="Layer 2"><g id="Layer_1-2" data-name="Layer 1"><rect class="cls-1" x="5.7" y="6.71" width="23.02" height="23.02"/><path d="M17.85,14.92a3.22,3.22,0,1,1-3.22,3.22,3.22,3.22,0,0,1,3.22-3.22"/><path d="M21.88,10.25h-8A3.55,3.55,0,0,0,10,13.44a3.86,3.86,0,0,0,0,.68v8.05a4,4,0,0,0,1.1,2.93,4.15,4.15,0,0,0,2.85,1h8a4,4,0,0,0,2.85-1,3.72,3.72,0,0,0,1.1-2.86v-8a4.11,4.11,0,0,0-1-2.86,3.92,3.92,0,0,0-2.93-1.09m-4,12.87a5,5,0,1,1,5-5,5,5,0,0,1-5,5m5.19-9A1.17,1.17,0,1,1,24.22,13h0a1.15,1.15,0,0,1-1.14,1.17Z"/><path d="M18,0A18,18,0,1,0,36,18h0A18,18,0,0,0,18,0Zm9.59,22.24A5.8,5.8,0,0,1,26,26.41,5.68,5.68,0,0,1,21.88,28h-8a5.7,5.7,0,0,1-4.09-1.54A5.5,5.5,0,0,1,8.2,22.24v-8a5.42,5.42,0,0,1,5.11-5.7H22a5.4,5.4,0,0,1,5.64,5.14,5.23,5.23,0,0,1,0,.56Z"/></g></g></svg>