<svg xmlns="http://www.w3.org/2000/svg" xmlns:xlink="http://www.w3.org/1999/xlink" viewBox="0 0 36 36"><defs><style>.cls-1{fill:none;}.cls-2{fill:#efefef;}.cls-3{opacity:0.9;isolation:isolate;}.cls-4{clip-path:url(#clip-path);}.cls-5{fill:#fff;}</style><clipPath id="clip-path"><rect class="cls-1" x="9.63" y="9.66" width="16.67" height="16.64"/></clipPath></defs><title>Asset 4</title><g id="Layer_2" data-name="Layer 2"><g id="Layer_1-2" data-name="Layer 1"><rect class="cls-2" x="6.7" y="6.7" width="23" height="23"/><path d="M18,0A18,18,0,1,1,0,18,18,18,0,0,1,18,0"/><g class="cls-3"><g class="cls-4"><path class="cls-5" d="M13.13,15.31H9.74v11h3.39Zm0-3.89a1.75,1.75,0,1,0-1.78,1.73h0a1.67,1.67,0,0,0,1.76-1.58v-.15Zm5.54,14.87V20a2.33,2.33,0,0,1,.12-.91,2.12,2.12,0,0,1,4.1.91v6.25h3.42V19.87c0-3.44-1.84-5-4.29-5a3.69,3.69,0,0,0-3.38,1.89l0-1.47H15.25c.05,1.05,0,11,0,11Z"/></g></g></g></g></svg>