<svg xmlns="http://www.w3.org/2000/svg" xmlns:xlink="http://www.w3.org/1999/xlink" viewBox="0 0 36 36"><defs><style>.cls-1{fill:none;}.cls-2{fill:#efefef;}.cls-3{opacity:0.9;isolation:isolate;}.cls-4{clip-path:url(#clip-path);}.cls-5{fill:#fff;}</style><clipPath id="clip-path"><rect class="cls-1" x="9.29" y="11.38" width="18.88" height="15.34"/></clipPath></defs><title>Asset 5</title><g id="Layer_2" data-name="Layer 2"><g id="Layer_1-2" data-name="Layer 1"><rect class="cls-2" x="6.9" y="6.77" width="23" height="23"/><path d="M18,0A18,18,0,1,1,0,18,18,18,0,0,1,18,0"/><g class="cls-3"><g class="cls-4"><path class="cls-5" d="M28.17,13.2a7.86,7.86,0,0,1-2.23.61,3.87,3.87,0,0,0,1.71-2.14,7.83,7.83,0,0,1-2.46.94,3.87,3.87,0,0,0-6.6,3.53,11,11,0,0,1-8-4.05,3.87,3.87,0,0,0,1.2,5.17,3.86,3.86,0,0,1-1.76-.48v0a3.88,3.88,0,0,0,3.11,3.8,3.83,3.83,0,0,1-1.75.06A3.87,3.87,0,0,0,15,23.38,7.8,7.8,0,0,1,10.22,25c-.31,0-.62,0-.93-.05a11,11,0,0,0,17-9.28c0-.17,0-.33,0-.5a7.89,7.89,0,0,0,1.94-2"/></g></g></g></g></svg>