<svg xmlns="http://www.w3.org/2000/svg" xmlns:xlink="http://www.w3.org/1999/xlink" viewBox="0 0 36 36"><defs><style>.cls-1{fill:none;}.cls-2{opacity:0.93;isolation:isolate;}.cls-3{clip-path:url(#clip-path);}.cls-4{fill:#fff;}</style><clipPath id="clip-path"><rect class="cls-1" x="8.81" y="11.59" width="18.9" height="13.86"/></clipPath></defs><title>Asset 1</title><g id="Layer_2" data-name="Layer 2"><g id="Layer_1-2" data-name="Layer 1"><path d="M18,0A18,18,0,1,1,0,18,18,18,0,0,1,18,0"/><g class="cls-2"><g class="cls-3"><path class="cls-4" d="M27.52,14.58a4.32,4.32,0,0,0-.75-2,2.64,2.64,0,0,0-1.89-.83c-2.65-.2-6.61-.2-6.61-.2h0s-4,0-6.62.2a2.66,2.66,0,0,0-1.89.83,4.43,4.43,0,0,0-.75,2,30.85,30.85,0,0,0-.19,3.19v1.49A30.85,30.85,0,0,0,9,22.45a4.48,4.48,0,0,0,.75,2,3.12,3.12,0,0,0,2.09.84c1.51.15,6.42.2,6.42.2s4,0,6.62-.21a2.64,2.64,0,0,0,1.89-.83,4.32,4.32,0,0,0,.75-2,30.69,30.69,0,0,0,.19-3.19V17.77a30.85,30.85,0,0,0-.19-3.19m-6.11,3.74-5.1,2.75V15.54l2.3,1.25Z"/></g></g></g></g></svg>